<svg xmlns="http://www.w3.org/2000/svg" xmlns:xlink="http://www.w3.org/1999/xlink" width="500" zoomAndPan="magnify" viewBox="0 0 375 374.999991" height="500" preserveAspectRatio="xMidYMid meet" version="1.0"><defs><g/><clipPath id="id1"><path d="M 84 231 L 144 231 L 144 275.90625 L 84 275.90625 Z M 84 231 " clip-rule="nonzero"/></clipPath><clipPath id="id2"><path d="M 11.390625 78.65625 L 206.371094 78.65625 L 206.371094 245 L 11.390625 245 Z M 11.390625 78.65625 " clip-rule="nonzero"/></clipPath></defs><g fill="rgb(65.098572%, 65.098572%, 65.098572%)" fill-opacity="1"><g transform="translate(133.152974, 252.846195)"><g><path d="M 2.15625 -9.125 L 3.375 -9.125 L 5.328125 0 L 4.125 0 L 3.703125 -2.296875 L 1.84375 -2.296875 L 1.40625 0 L 0.21875 0 Z M 3.53125 -3.203125 L 2.765625 -7.328125 L 2.015625 -3.203125 Z M 3.53125 -3.203125 "/></g></g></g><g fill="rgb(65.098572%, 65.098572%, 65.098572%)" fill-opacity="1"><g transform="translate(141.713176, 252.846195)"><g/></g></g><g fill="rgb(65.098572%, 65.098572%, 65.098572%)" fill-opacity="1"><g transform="translate(147.311544, 252.846195)"><g><path d="M 3.0625 0.09375 C 2.425781 0.09375 1.925781 -0.03125 1.5625 -0.28125 C 1.207031 -0.539062 0.960938 -0.894531 0.828125 -1.34375 C 0.691406 -1.800781 0.625 -2.378906 0.625 -3.078125 L 0.625 -9.125 L 1.84375 -9.125 L 1.84375 -3.015625 C 1.84375 -2.328125 1.921875 -1.800781 2.078125 -1.4375 C 2.242188 -1.082031 2.570312 -0.90625 3.0625 -0.90625 C 3.550781 -0.90625 3.875 -1.082031 4.03125 -1.4375 C 4.195312 -1.800781 4.28125 -2.328125 4.28125 -3.015625 L 4.28125 -9.125 L 5.484375 -9.125 L 5.484375 -3.078125 C 5.484375 -2.378906 5.414062 -1.800781 5.28125 -1.34375 C 5.144531 -0.894531 4.898438 -0.539062 4.546875 -0.28125 C 4.191406 -0.03125 3.695312 0.09375 3.0625 0.09375 Z M 3.0625 0.09375 "/></g></g></g><g fill="rgb(65.098572%, 65.098572%, 65.098572%)" fill-opacity="1"><g transform="translate(156.44609, 252.846195)"><g><path d="M 0.703125 -9.125 L 1.578125 -9.125 L 4.171875 -3.0625 L 4.171875 -9.125 L 5.234375 -9.125 L 5.234375 0 L 4.421875 0 L 1.796875 -6.234375 L 1.796875 0 L 0.703125 0 Z M 0.703125 -9.125 "/></g></g></g><g fill="rgb(65.098572%, 65.098572%, 65.098572%)" fill-opacity="1"><g transform="translate(165.41171, 252.846195)"><g><path d="M 0.78125 -9.125 L 2.03125 -9.125 L 2.03125 0 L 0.78125 0 Z M 0.78125 -9.125 "/></g></g></g><g fill="rgb(65.098572%, 65.098572%, 65.098572%)" fill-opacity="1"><g transform="translate(171.22406, 252.846195)"><g><path d="M 4.90625 1.84375 C 4.445312 1.625 3.894531 1.039062 3.25 0.09375 C 3.207031 0.09375 3.140625 0.09375 3.046875 0.09375 C 2.148438 0.09375 1.507812 -0.15625 1.125 -0.65625 C 0.738281 -1.164062 0.546875 -1.898438 0.546875 -2.859375 L 0.546875 -6.3125 C 0.546875 -7.257812 0.738281 -7.976562 1.125 -8.46875 C 1.519531 -8.957031 2.160156 -9.203125 3.046875 -9.203125 C 3.929688 -9.203125 4.566406 -8.957031 4.953125 -8.46875 C 5.347656 -7.976562 5.546875 -7.257812 5.546875 -6.3125 L 5.546875 -2.84375 C 5.546875 -1.394531 5.097656 -0.484375 4.203125 -0.109375 C 4.578125 0.378906 4.878906 0.695312 5.109375 0.84375 Z M 3.046875 -0.90625 C 3.523438 -0.90625 3.847656 -1.039062 4.015625 -1.3125 C 4.179688 -1.59375 4.265625 -2.015625 4.265625 -2.578125 L 4.265625 -6.578125 C 4.265625 -7.128906 4.179688 -7.539062 4.015625 -7.8125 C 3.847656 -8.082031 3.523438 -8.21875 3.046875 -8.21875 C 2.566406 -8.21875 2.242188 -8.082031 2.078125 -7.8125 C 1.910156 -7.539062 1.828125 -7.128906 1.828125 -6.578125 L 1.828125 -2.578125 C 1.828125 -2.015625 1.910156 -1.59375 2.078125 -1.3125 C 2.242188 -1.039062 2.566406 -0.90625 3.046875 -0.90625 Z M 3.046875 -0.90625 "/></g></g></g><g fill="rgb(65.098572%, 65.098572%, 65.098572%)" fill-opacity="1"><g transform="translate(180.336086, 252.846195)"><g><path d="M 3.0625 0.09375 C 2.425781 0.09375 1.925781 -0.03125 1.5625 -0.28125 C 1.207031 -0.539062 0.960938 -0.894531 0.828125 -1.34375 C 0.691406 -1.800781 0.625 -2.378906 0.625 -3.078125 L 0.625 -9.125 L 1.84375 -9.125 L 1.84375 -3.015625 C 1.84375 -2.328125 1.921875 -1.800781 2.078125 -1.4375 C 2.242188 -1.082031 2.570312 -0.90625 3.0625 -0.90625 C 3.550781 -0.90625 3.875 -1.082031 4.03125 -1.4375 C 4.195312 -1.800781 4.28125 -2.328125 4.28125 -3.015625 L 4.28125 -9.125 L 5.484375 -9.125 L 5.484375 -3.078125 C 5.484375 -2.378906 5.414062 -1.800781 5.28125 -1.34375 C 5.144531 -0.894531 4.898438 -0.539062 4.546875 -0.28125 C 4.191406 -0.03125 3.695312 0.09375 3.0625 0.09375 Z M 3.0625 0.09375 "/></g></g></g><g fill="rgb(65.098572%, 65.098572%, 65.098572%)" fill-opacity="1"><g transform="translate(189.470634, 252.846195)"><g><path d="M 0.703125 -9.125 L 4.25 -9.125 L 4.25 -8.171875 L 1.984375 -8.171875 L 1.984375 -5.15625 L 3.8125 -5.15625 L 3.8125 -4.265625 L 1.984375 -4.265625 L 1.984375 -0.90625 L 4.265625 -0.90625 L 4.265625 0 L 0.703125 0 Z M 0.703125 -9.125 "/></g></g></g><g fill="rgb(65.098572%, 65.098572%, 65.098572%)" fill-opacity="1"><g transform="translate(197.073584, 252.846195)"><g/></g></g><g fill="rgb(65.098572%, 65.098572%, 65.098572%)" fill-opacity="1"><g transform="translate(202.671954, 252.846195)"><g><path d="M 0.703125 -9.125 L 2.96875 -9.125 C 3.757812 -9.125 4.332031 -8.910156 4.6875 -8.484375 C 5.050781 -8.054688 5.234375 -7.429688 5.234375 -6.609375 C 5.234375 -5.859375 5.039062 -5.273438 4.65625 -4.859375 C 4.269531 -4.453125 3.710938 -4.25 2.984375 -4.25 L 1.984375 -4.25 L 1.984375 0 L 0.703125 0 Z M 2.5625 -5.15625 C 2.9375 -5.15625 3.226562 -5.195312 3.4375 -5.28125 C 3.644531 -5.363281 3.789062 -5.503906 3.875 -5.703125 C 3.96875 -5.910156 4.015625 -6.207031 4.015625 -6.59375 C 4.015625 -7.050781 3.976562 -7.390625 3.90625 -7.609375 C 3.84375 -7.828125 3.710938 -7.984375 3.515625 -8.078125 C 3.316406 -8.171875 3.003906 -8.21875 2.578125 -8.21875 L 1.984375 -8.21875 L 1.984375 -5.15625 Z M 2.5625 -5.15625 "/></g></g></g><g fill="rgb(65.098572%, 65.098572%, 65.098572%)" fill-opacity="1"><g transform="translate(211.097013, 252.846195)"><g><path d="M 0.703125 -9.125 L 1.984375 -9.125 L 1.984375 -0.90625 L 4.3125 -0.90625 L 4.3125 0 L 0.703125 0 Z M 0.703125 -9.125 "/></g></g></g><g fill="rgb(65.098572%, 65.098572%, 65.098572%)" fill-opacity="1"><g transform="translate(218.587354, 252.846195)"><g><path d="M 2.15625 -9.125 L 3.375 -9.125 L 5.328125 0 L 4.125 0 L 3.703125 -2.296875 L 1.84375 -2.296875 L 1.40625 0 L 0.21875 0 Z M 3.53125 -3.203125 L 2.765625 -7.328125 L 2.015625 -3.203125 Z M 3.53125 -3.203125 "/></g></g></g><g fill="rgb(65.098572%, 65.098572%, 65.098572%)" fill-opacity="1"><g transform="translate(227.147557, 252.846195)"><g><path d="M 3 0.09375 C 2.09375 0.09375 1.457031 -0.171875 1.09375 -0.703125 C 0.726562 -1.242188 0.546875 -1.984375 0.546875 -2.921875 L 0.546875 -6.15625 C 0.546875 -7.15625 0.722656 -7.910156 1.078125 -8.421875 C 1.441406 -8.941406 2.082031 -9.203125 3 -9.203125 C 3.8125 -9.203125 4.394531 -8.976562 4.75 -8.53125 C 5.113281 -8.09375 5.296875 -7.441406 5.296875 -6.578125 L 5.296875 -5.859375 L 4.09375 -5.859375 L 4.09375 -6.5 C 4.09375 -6.914062 4.070312 -7.238281 4.03125 -7.46875 C 4 -7.695312 3.90625 -7.878906 3.75 -8.015625 C 3.59375 -8.148438 3.347656 -8.21875 3.015625 -8.21875 C 2.660156 -8.21875 2.398438 -8.140625 2.234375 -7.984375 C 2.066406 -7.835938 1.957031 -7.632812 1.90625 -7.375 C 1.851562 -7.125 1.828125 -6.78125 1.828125 -6.34375 L 1.828125 -2.71875 C 1.828125 -2.257812 1.863281 -1.894531 1.9375 -1.625 C 2.007812 -1.363281 2.128906 -1.175781 2.296875 -1.0625 C 2.472656 -0.957031 2.710938 -0.90625 3.015625 -0.90625 C 3.335938 -0.90625 3.578125 -0.972656 3.734375 -1.109375 C 3.890625 -1.253906 3.988281 -1.453125 4.03125 -1.703125 C 4.070312 -1.953125 4.09375 -2.289062 4.09375 -2.71875 L 4.09375 -3.390625 L 5.296875 -3.390625 L 5.296875 -2.71875 C 5.296875 -1.8125 5.125 -1.113281 4.78125 -0.625 C 4.4375 -0.144531 3.84375 0.09375 3 0.09375 Z M 3 0.09375 "/></g></g></g><g fill="rgb(65.098572%, 65.098572%, 65.098572%)" fill-opacity="1"><g transform="translate(235.966768, 252.846195)"><g><path d="M 0.703125 -9.125 L 4.25 -9.125 L 4.25 -8.171875 L 1.984375 -8.171875 L 1.984375 -5.15625 L 3.8125 -5.15625 L 3.8125 -4.265625 L 1.984375 -4.265625 L 1.984375 -0.90625 L 4.265625 -0.90625 L 4.265625 0 L 0.703125 0 Z M 0.703125 -9.125 "/></g></g></g><g fill="rgb(65.098572%, 65.098572%, 65.098572%)" fill-opacity="1"><g transform="translate(243.569719, 252.846195)"><g/></g></g><g fill="rgb(65.098572%, 65.098572%, 65.098572%)" fill-opacity="1"><g transform="translate(249.168088, 252.846195)"><g><path d="M 0.703125 -9.125 L 4.234375 -9.125 L 4.234375 -8.21875 L 1.984375 -8.21875 L 1.984375 -5.171875 L 3.734375 -5.171875 L 3.734375 -4.265625 L 1.984375 -4.265625 L 1.984375 0 L 0.703125 0 Z M 0.703125 -9.125 "/></g></g></g><g fill="rgb(65.098572%, 65.098572%, 65.098572%)" fill-opacity="1"><g transform="translate(256.590851, 252.846195)"><g><path d="M 3.046875 0.09375 C 2.148438 0.09375 1.507812 -0.15625 1.125 -0.65625 C 0.738281 -1.164062 0.546875 -1.898438 0.546875 -2.859375 L 0.546875 -6.3125 C 0.546875 -7.257812 0.738281 -7.976562 1.125 -8.46875 C 1.519531 -8.957031 2.160156 -9.203125 3.046875 -9.203125 C 3.929688 -9.203125 4.566406 -8.957031 4.953125 -8.46875 C 5.335938 -7.976562 5.53125 -7.257812 5.53125 -6.3125 L 5.53125 -2.84375 C 5.53125 -1.90625 5.332031 -1.179688 4.9375 -0.671875 C 4.550781 -0.160156 3.921875 0.09375 3.046875 0.09375 Z M 3.046875 -0.90625 C 3.515625 -0.90625 3.832031 -1.039062 4 -1.3125 C 4.164062 -1.59375 4.25 -2.015625 4.25 -2.578125 L 4.25 -6.578125 C 4.25 -7.128906 4.164062 -7.539062 4 -7.8125 C 3.832031 -8.082031 3.515625 -8.21875 3.046875 -8.21875 C 2.566406 -8.21875 2.242188 -8.082031 2.078125 -7.8125 C 1.910156 -7.539062 1.828125 -7.128906 1.828125 -6.578125 L 1.828125 -2.578125 C 1.828125 -2.015625 1.910156 -1.59375 2.078125 -1.3125 C 2.242188 -1.039062 2.566406 -0.90625 3.046875 -0.90625 Z M 3.046875 -0.90625 "/></g></g></g><g fill="rgb(65.098572%, 65.098572%, 65.098572%)" fill-opacity="1"><g transform="translate(265.680355, 252.846195)"><g><path d="M 0.703125 -9.125 L 2.546875 -9.125 C 3.472656 -9.125 4.148438 -8.929688 4.578125 -8.546875 C 5.015625 -8.171875 5.234375 -7.554688 5.234375 -6.703125 C 5.234375 -5.535156 4.851562 -4.828125 4.09375 -4.578125 L 5.390625 0 L 4.171875 0 L 2.96875 -4.28125 L 1.984375 -4.28125 L 1.984375 0 L 0.703125 0 Z M 2.46875 -5.1875 C 3.019531 -5.1875 3.410156 -5.296875 3.640625 -5.515625 C 3.878906 -5.734375 4 -6.128906 4 -6.703125 C 4 -7.078125 3.957031 -7.367188 3.875 -7.578125 C 3.789062 -7.796875 3.644531 -7.957031 3.4375 -8.0625 C 3.226562 -8.164062 2.929688 -8.21875 2.546875 -8.21875 L 1.984375 -8.21875 L 1.984375 -5.1875 Z M 2.46875 -5.1875 "/></g></g></g><g fill="rgb(65.098572%, 65.098572%, 65.098572%)" fill-opacity="1"><g transform="translate(274.544616, 252.846195)"><g/></g></g><g fill="rgb(65.098572%, 65.098572%, 65.098572%)" fill-opacity="1"><g transform="translate(280.142985, 252.846195)"><g><path d="M 0.703125 -9.125 L 2.8125 -9.125 C 3.632812 -9.125 4.242188 -8.9375 4.640625 -8.5625 C 5.035156 -8.195312 5.234375 -7.625 5.234375 -6.84375 C 5.234375 -5.675781 4.800781 -5.03125 3.9375 -4.90625 C 4.476562 -4.78125 4.867188 -4.523438 5.109375 -4.140625 C 5.359375 -3.765625 5.484375 -3.253906 5.484375 -2.609375 C 5.484375 -1.785156 5.289062 -1.144531 4.90625 -0.6875 C 4.519531 -0.226562 3.929688 0 3.140625 0 L 0.703125 0 Z M 2.734375 -5.3125 C 3.265625 -5.3125 3.628906 -5.425781 3.828125 -5.65625 C 4.035156 -5.882812 4.140625 -6.28125 4.140625 -6.84375 C 4.140625 -7.25 4.078125 -7.546875 3.953125 -7.734375 C 3.828125 -7.921875 3.640625 -8.039062 3.390625 -8.09375 C 3.140625 -8.144531 2.769531 -8.171875 2.28125 -8.171875 L 1.984375 -8.171875 L 1.984375 -5.3125 Z M 2.84375 -0.90625 C 3.21875 -0.90625 3.503906 -0.960938 3.703125 -1.078125 C 3.910156 -1.203125 4.054688 -1.382812 4.140625 -1.625 C 4.222656 -1.863281 4.265625 -2.191406 4.265625 -2.609375 C 4.265625 -3.191406 4.144531 -3.625 3.90625 -3.90625 C 3.664062 -4.195312 3.273438 -4.34375 2.734375 -4.34375 L 1.984375 -4.34375 L 1.984375 -0.90625 Z M 2.84375 -0.90625 "/></g></g></g><g fill="rgb(65.098572%, 65.098572%, 65.098572%)" fill-opacity="1"><g transform="translate(289.063563, 252.846195)"><g><path d="M 3.0625 0.09375 C 2.425781 0.09375 1.925781 -0.03125 1.5625 -0.28125 C 1.207031 -0.539062 0.960938 -0.894531 0.828125 -1.34375 C 0.691406 -1.800781 0.625 -2.378906 0.625 -3.078125 L 0.625 -9.125 L 1.84375 -9.125 L 1.84375 -3.015625 C 1.84375 -2.328125 1.921875 -1.800781 2.078125 -1.4375 C 2.242188 -1.082031 2.570312 -0.90625 3.0625 -0.90625 C 3.550781 -0.90625 3.875 -1.082031 4.03125 -1.4375 C 4.195312 -1.800781 4.28125 -2.328125 4.28125 -3.015625 L 4.28125 -9.125 L 5.484375 -9.125 L 5.484375 -3.078125 C 5.484375 -2.378906 5.414062 -1.800781 5.28125 -1.34375 C 5.144531 -0.894531 4.898438 -0.539062 4.546875 -0.28125 C 4.191406 -0.03125 3.695312 0.09375 3.0625 0.09375 Z M 3.0625 0.09375 "/></g></g></g><g fill="rgb(65.098572%, 65.098572%, 65.098572%)" fill-opacity="1"><g transform="translate(298.19811, 252.846195)"><g><path d="M 0.78125 -9.125 L 2.03125 -9.125 L 2.03125 0 L 0.78125 0 Z M 0.78125 -9.125 "/></g></g></g><g fill="rgb(65.098572%, 65.098572%, 65.098572%)" fill-opacity="1"><g transform="translate(304.010461, 252.846195)"><g><path d="M 0.703125 -9.125 L 1.984375 -9.125 L 1.984375 -0.90625 L 4.3125 -0.90625 L 4.3125 0 L 0.703125 0 Z M 0.703125 -9.125 "/></g></g></g><g fill="rgb(65.098572%, 65.098572%, 65.098572%)" fill-opacity="1"><g transform="translate(311.500802, 252.846195)"><g><path d="M 0.703125 -9.125 L 2.6875 -9.125 C 3.675781 -9.125 4.375 -8.894531 4.78125 -8.4375 C 5.1875 -7.988281 5.390625 -7.289062 5.390625 -6.34375 L 5.390625 -2.984375 C 5.390625 -1.972656 5.1875 -1.222656 4.78125 -0.734375 C 4.382812 -0.242188 3.722656 0 2.796875 0 L 0.703125 0 Z M 2.703125 -0.90625 C 3.148438 -0.90625 3.472656 -0.992188 3.671875 -1.171875 C 3.867188 -1.347656 3.988281 -1.582031 4.03125 -1.875 C 4.082031 -2.175781 4.109375 -2.625 4.109375 -3.21875 L 4.109375 -6.1875 C 4.109375 -6.707031 4.078125 -7.101562 4.015625 -7.375 C 3.953125 -7.644531 3.816406 -7.84375 3.609375 -7.96875 C 3.410156 -8.101562 3.097656 -8.171875 2.671875 -8.171875 L 1.984375 -8.171875 L 1.984375 -0.90625 Z M 2.703125 -0.90625 "/></g></g></g><g fill="rgb(65.098572%, 65.098572%, 65.098572%)" fill-opacity="1"><g transform="translate(320.455162, 252.846195)"><g><path d="M 0.78125 -9.125 L 2.03125 -9.125 L 2.03125 0 L 0.78125 0 Z M 0.78125 -9.125 "/></g></g></g><g fill="rgb(65.098572%, 65.098572%, 65.098572%)" fill-opacity="1"><g transform="translate(326.267502, 252.846195)"><g><path d="M 0.703125 -9.125 L 1.578125 -9.125 L 4.171875 -3.0625 L 4.171875 -9.125 L 5.234375 -9.125 L 5.234375 0 L 4.421875 0 L 1.796875 -6.234375 L 1.796875 0 L 0.703125 0 Z M 0.703125 -9.125 "/></g></g></g><g fill="rgb(65.098572%, 65.098572%, 65.098572%)" fill-opacity="1"><g transform="translate(335.233123, 252.846195)"><g><path d="M 2.890625 0.109375 C 2.054688 0.109375 1.457031 -0.148438 1.09375 -0.671875 C 0.726562 -1.191406 0.546875 -1.96875 0.546875 -3 L 0.546875 -6.046875 C 0.546875 -6.753906 0.617188 -7.332031 0.765625 -7.78125 C 0.910156 -8.238281 1.160156 -8.585938 1.515625 -8.828125 C 1.867188 -9.078125 2.359375 -9.203125 2.984375 -9.203125 C 3.828125 -9.203125 4.429688 -8.988281 4.796875 -8.5625 C 5.171875 -8.132812 5.359375 -7.460938 5.359375 -6.546875 L 5.359375 -6.203125 L 4.171875 -6.203125 L 4.171875 -6.484375 C 4.171875 -6.921875 4.144531 -7.257812 4.09375 -7.5 C 4.039062 -7.738281 3.925781 -7.914062 3.75 -8.03125 C 3.582031 -8.15625 3.335938 -8.21875 3.015625 -8.21875 C 2.660156 -8.21875 2.394531 -8.132812 2.21875 -7.96875 C 2.039062 -7.8125 1.925781 -7.597656 1.875 -7.328125 C 1.832031 -7.054688 1.8125 -6.691406 1.8125 -6.234375 L 1.8125 -2.859375 C 1.8125 -2.160156 1.894531 -1.660156 2.0625 -1.359375 C 2.238281 -1.054688 2.566406 -0.90625 3.046875 -0.90625 C 3.515625 -0.90625 3.835938 -1.066406 4.015625 -1.390625 C 4.191406 -1.722656 4.28125 -2.253906 4.28125 -2.984375 L 4.28125 -3.609375 L 3.125 -3.609375 L 3.125 -4.515625 L 5.4375 -4.515625 L 5.4375 0 L 4.625 0 L 4.5 -1.046875 C 4.21875 -0.273438 3.679688 0.109375 2.890625 0.109375 Z M 2.890625 0.109375 "/></g></g></g><g fill="rgb(65.098572%, 65.098572%, 65.098572%)" fill-opacity="1"><g transform="translate(146.102192, 268.596194)"><g><path d="M 0.703125 -9.125 L 2.6875 -9.125 C 3.675781 -9.125 4.375 -8.894531 4.78125 -8.4375 C 5.1875 -7.988281 5.390625 -7.289062 5.390625 -6.34375 L 5.390625 -2.984375 C 5.390625 -1.972656 5.1875 -1.222656 4.78125 -0.734375 C 4.382812 -0.242188 3.722656 0 2.796875 0 L 0.703125 0 Z M 2.703125 -0.90625 C 3.148438 -0.90625 3.472656 -0.992188 3.671875 -1.171875 C 3.867188 -1.347656 3.988281 -1.582031 4.03125 -1.875 C 4.082031 -2.175781 4.109375 -2.625 4.109375 -3.21875 L 4.109375 -6.1875 C 4.109375 -6.707031 4.078125 -7.101562 4.015625 -7.375 C 3.953125 -7.644531 3.816406 -7.84375 3.609375 -7.96875 C 3.410156 -8.101562 3.097656 -8.171875 2.671875 -8.171875 L 1.984375 -8.171875 L 1.984375 -0.90625 Z M 2.703125 -0.90625 "/></g></g></g><g fill="rgb(65.098572%, 65.098572%, 65.098572%)" fill-opacity="1"><g transform="translate(155.056551, 268.596194)"><g><path d="M 0.703125 -9.125 L 4.25 -9.125 L 4.25 -8.171875 L 1.984375 -8.171875 L 1.984375 -5.15625 L 3.8125 -5.15625 L 3.8125 -4.265625 L 1.984375 -4.265625 L 1.984375 -0.90625 L 4.265625 -0.90625 L 4.265625 0 L 0.703125 0 Z M 0.703125 -9.125 "/></g></g></g><g fill="rgb(65.098572%, 65.098572%, 65.098572%)" fill-opacity="1"><g transform="translate(162.6595, 268.596194)"><g><path d="M 2.859375 0.09375 C 2.097656 0.09375 1.515625 -0.140625 1.109375 -0.609375 C 0.703125 -1.078125 0.476562 -1.726562 0.4375 -2.5625 L 1.5625 -2.859375 C 1.601562 -2.273438 1.71875 -1.800781 1.90625 -1.4375 C 2.101562 -1.082031 2.421875 -0.90625 2.859375 -0.90625 C 3.191406 -0.90625 3.441406 -0.992188 3.609375 -1.171875 C 3.773438 -1.359375 3.859375 -1.625 3.859375 -1.96875 C 3.859375 -2.34375 3.78125 -2.65625 3.625 -2.90625 C 3.46875 -3.15625 3.21875 -3.429688 2.875 -3.734375 L 1.34375 -5.078125 C 1.03125 -5.347656 0.804688 -5.640625 0.671875 -5.953125 C 0.535156 -6.265625 0.46875 -6.644531 0.46875 -7.09375 C 0.46875 -7.757812 0.65625 -8.273438 1.03125 -8.640625 C 1.414062 -9.015625 1.941406 -9.203125 2.609375 -9.203125 C 3.328125 -9.203125 3.867188 -9.007812 4.234375 -8.625 C 4.597656 -8.25 4.820312 -7.65625 4.90625 -6.84375 L 3.8125 -6.5625 C 3.78125 -7.09375 3.675781 -7.5 3.5 -7.78125 C 3.332031 -8.070312 3.035156 -8.21875 2.609375 -8.21875 C 2.285156 -8.21875 2.035156 -8.132812 1.859375 -7.96875 C 1.679688 -7.800781 1.59375 -7.550781 1.59375 -7.21875 C 1.59375 -6.945312 1.640625 -6.71875 1.734375 -6.53125 C 1.828125 -6.351562 1.984375 -6.171875 2.203125 -5.984375 L 3.734375 -4.625 C 4.140625 -4.269531 4.457031 -3.882812 4.6875 -3.46875 C 4.925781 -3.0625 5.046875 -2.597656 5.046875 -2.078125 C 5.046875 -1.398438 4.84375 -0.867188 4.4375 -0.484375 C 4.03125 -0.0976562 3.503906 0.09375 2.859375 0.09375 Z M 2.859375 0.09375 "/></g></g></g><g fill="rgb(65.098572%, 65.098572%, 65.098572%)" fill-opacity="1"><g transform="translate(171.00573, 268.596194)"><g><path d="M 0.78125 -9.125 L 2.03125 -9.125 L 2.03125 0 L 0.78125 0 Z M 0.78125 -9.125 "/></g></g></g><g fill="rgb(65.098572%, 65.098572%, 65.098572%)" fill-opacity="1"><g transform="translate(176.818081, 268.596194)"><g><path d="M 2.890625 0.109375 C 2.054688 0.109375 1.457031 -0.148438 1.09375 -0.671875 C 0.726562 -1.191406 0.546875 -1.96875 0.546875 -3 L 0.546875 -6.046875 C 0.546875 -6.753906 0.617188 -7.332031 0.765625 -7.78125 C 0.910156 -8.238281 1.160156 -8.585938 1.515625 -8.828125 C 1.867188 -9.078125 2.359375 -9.203125 2.984375 -9.203125 C 3.828125 -9.203125 4.429688 -8.988281 4.796875 -8.5625 C 5.171875 -8.132812 5.359375 -7.460938 5.359375 -6.546875 L 5.359375 -6.203125 L 4.171875 -6.203125 L 4.171875 -6.484375 C 4.171875 -6.921875 4.144531 -7.257812 4.09375 -7.5 C 4.039062 -7.738281 3.925781 -7.914062 3.75 -8.03125 C 3.582031 -8.15625 3.335938 -8.21875 3.015625 -8.21875 C 2.660156 -8.21875 2.394531 -8.132812 2.21875 -7.96875 C 2.039062 -7.8125 1.925781 -7.597656 1.875 -7.328125 C 1.832031 -7.054688 1.8125 -6.691406 1.8125 -6.234375 L 1.8125 -2.859375 C 1.8125 -2.160156 1.894531 -1.660156 2.0625 -1.359375 C 2.238281 -1.054688 2.566406 -0.90625 3.046875 -0.90625 C 3.515625 -0.90625 3.835938 -1.066406 4.015625 -1.390625 C 4.191406 -1.722656 4.28125 -2.253906 4.28125 -2.984375 L 4.28125 -3.609375 L 3.125 -3.609375 L 3.125 -4.515625 L 5.4375 -4.515625 L 5.4375 0 L 4.625 0 L 4.5 -1.046875 C 4.21875 -0.273438 3.679688 0.109375 2.890625 0.109375 Z M 2.890625 0.109375 "/></g></g></g><g fill="rgb(65.098572%, 65.098572%, 65.098572%)" fill-opacity="1"><g transform="translate(185.862529, 268.596194)"><g><path d="M 0.703125 -9.125 L 1.578125 -9.125 L 4.171875 -3.0625 L 4.171875 -9.125 L 5.234375 -9.125 L 5.234375 0 L 4.421875 0 L 1.796875 -6.234375 L 1.796875 0 L 0.703125 0 Z M 0.703125 -9.125 "/></g></g></g><g fill="rgb(65.098572%, 65.098572%, 65.098572%)" fill-opacity="1"><g transform="translate(194.828151, 268.596194)"><g><path d="M 2.859375 0.09375 C 2.097656 0.09375 1.515625 -0.140625 1.109375 -0.609375 C 0.703125 -1.078125 0.476562 -1.726562 0.4375 -2.5625 L 1.5625 -2.859375 C 1.601562 -2.273438 1.71875 -1.800781 1.90625 -1.4375 C 2.101562 -1.082031 2.421875 -0.90625 2.859375 -0.90625 C 3.191406 -0.90625 3.441406 -0.992188 3.609375 -1.171875 C 3.773438 -1.359375 3.859375 -1.625 3.859375 -1.96875 C 3.859375 -2.34375 3.78125 -2.65625 3.625 -2.90625 C 3.46875 -3.15625 3.21875 -3.429688 2.875 -3.734375 L 1.34375 -5.078125 C 1.03125 -5.347656 0.804688 -5.640625 0.671875 -5.953125 C 0.535156 -6.265625 0.46875 -6.644531 0.46875 -7.09375 C 0.46875 -7.757812 0.65625 -8.273438 1.03125 -8.640625 C 1.414062 -9.015625 1.941406 -9.203125 2.609375 -9.203125 C 3.328125 -9.203125 3.867188 -9.007812 4.234375 -8.625 C 4.597656 -8.25 4.820312 -7.65625 4.90625 -6.84375 L 3.8125 -6.5625 C 3.78125 -7.09375 3.675781 -7.5 3.5 -7.78125 C 3.332031 -8.070312 3.035156 -8.21875 2.609375 -8.21875 C 2.285156 -8.21875 2.035156 -8.132812 1.859375 -7.96875 C 1.679688 -7.800781 1.59375 -7.550781 1.59375 -7.21875 C 1.59375 -6.945312 1.640625 -6.71875 1.734375 -6.53125 C 1.828125 -6.351562 1.984375 -6.171875 2.203125 -5.984375 L 3.734375 -4.625 C 4.140625 -4.269531 4.457031 -3.882812 4.6875 -3.46875 C 4.925781 -3.0625 5.046875 -2.597656 5.046875 -2.078125 C 5.046875 -1.398438 4.84375 -0.867188 4.4375 -0.484375 C 4.03125 -0.0976562 3.503906 0.09375 2.859375 0.09375 Z M 2.859375 0.09375 "/></g></g></g><g fill="rgb(65.098572%, 65.098572%, 65.098572%)" fill-opacity="1"><g transform="translate(203.174383, 268.596194)"><g/></g></g><g fill="rgb(65.098572%, 65.098572%, 65.098572%)" fill-opacity="1"><g transform="translate(208.772753, 268.596194)"><g><path d="M 2.625 0.09375 C 2.007812 0.09375 1.523438 -0.09375 1.171875 -0.46875 C 0.828125 -0.84375 0.65625 -1.335938 0.65625 -1.953125 C 0.65625 -2.484375 0.769531 -2.957031 1 -3.375 C 1.238281 -3.800781 1.566406 -4.203125 1.984375 -4.578125 L 1.734375 -5.046875 C 1.492188 -5.484375 1.304688 -5.859375 1.171875 -6.171875 C 1.046875 -6.492188 0.984375 -6.832031 0.984375 -7.1875 C 0.984375 -7.789062 1.15625 -8.273438 1.5 -8.640625 C 1.851562 -9.015625 2.332031 -9.203125 2.9375 -9.203125 C 3.5 -9.203125 3.960938 -9.050781 4.328125 -8.75 C 4.691406 -8.445312 4.875 -8.035156 4.875 -7.515625 C 4.875 -6.984375 4.707031 -6.46875 4.375 -5.96875 C 4.050781 -5.476562 3.648438 -5 3.171875 -4.53125 L 4.546875 -2.359375 C 4.753906 -2.785156 4.898438 -3.394531 4.984375 -4.1875 L 6.1875 -4.1875 C 6.1875 -3.769531 6.097656 -3.316406 5.921875 -2.828125 C 5.742188 -2.347656 5.539062 -1.941406 5.3125 -1.609375 C 5.414062 -1.472656 5.546875 -1.363281 5.703125 -1.28125 C 5.859375 -1.195312 6.023438 -1.15625 6.203125 -1.15625 L 6.203125 0.09375 L 6.03125 0.09375 C 5.832031 0.09375 5.648438 0.046875 5.484375 -0.046875 C 5.316406 -0.140625 5.175781 -0.234375 5.0625 -0.328125 C 4.957031 -0.421875 4.796875 -0.570312 4.578125 -0.78125 C 4.367188 -0.519531 4.097656 -0.304688 3.765625 -0.140625 C 3.429688 0.015625 3.050781 0.09375 2.625 0.09375 Z M 2.75 -5.1875 C 3 -5.476562 3.210938 -5.835938 3.390625 -6.265625 C 3.578125 -6.703125 3.671875 -7.117188 3.671875 -7.515625 C 3.671875 -7.734375 3.601562 -7.90625 3.46875 -8.03125 C 3.34375 -8.15625 3.164062 -8.21875 2.9375 -8.21875 C 2.6875 -8.21875 2.5 -8.113281 2.375 -7.90625 C 2.257812 -7.707031 2.203125 -7.46875 2.203125 -7.1875 C 2.203125 -6.875 2.25 -6.554688 2.34375 -6.234375 C 2.4375 -5.910156 2.570312 -5.5625 2.75 -5.1875 Z M 2.625 -0.90625 C 3.082031 -0.90625 3.492188 -1.128906 3.859375 -1.578125 L 2.453125 -3.734375 C 2.273438 -3.492188 2.128906 -3.21875 2.015625 -2.90625 C 1.910156 -2.59375 1.859375 -2.273438 1.859375 -1.953125 C 1.859375 -1.648438 1.914062 -1.398438 2.03125 -1.203125 C 2.15625 -1.003906 2.351562 -0.90625 2.625 -0.90625 Z M 2.625 -0.90625 "/></g></g></g><g fill="rgb(65.098572%, 65.098572%, 65.098572%)" fill-opacity="1"><g transform="translate(218.616788, 268.596194)"><g/></g></g><g fill="rgb(65.098572%, 65.098572%, 65.098572%)" fill-opacity="1"><g transform="translate(224.215157, 268.596194)"><g><path d="M 2.15625 -9.125 L 3.375 -9.125 L 5.328125 0 L 4.125 0 L 3.703125 -2.296875 L 1.84375 -2.296875 L 1.40625 0 L 0.21875 0 Z M 3.53125 -3.203125 L 2.765625 -7.328125 L 2.015625 -3.203125 Z M 3.53125 -3.203125 "/></g></g></g><g fill="rgb(65.098572%, 65.098572%, 65.098572%)" fill-opacity="1"><g transform="translate(232.77536, 268.596194)"><g><path d="M 0.703125 -9.125 L 2.546875 -9.125 C 3.472656 -9.125 4.148438 -8.929688 4.578125 -8.546875 C 5.015625 -8.171875 5.234375 -7.554688 5.234375 -6.703125 C 5.234375 -5.535156 4.851562 -4.828125 4.09375 -4.578125 L 5.390625 0 L 4.171875 0 L 2.96875 -4.28125 L 1.984375 -4.28125 L 1.984375 0 L 0.703125 0 Z M 2.46875 -5.1875 C 3.019531 -5.1875 3.410156 -5.296875 3.640625 -5.515625 C 3.878906 -5.734375 4 -6.128906 4 -6.703125 C 4 -7.078125 3.957031 -7.367188 3.875 -7.578125 C 3.789062 -7.796875 3.644531 -7.957031 3.4375 -8.0625 C 3.226562 -8.164062 2.929688 -8.21875 2.546875 -8.21875 L 1.984375 -8.21875 L 1.984375 -5.1875 Z M 2.46875 -5.1875 "/></g></g></g><g fill="rgb(65.098572%, 65.098572%, 65.098572%)" fill-opacity="1"><g transform="translate(241.639621, 268.596194)"><g><path d="M 3 0.09375 C 2.09375 0.09375 1.457031 -0.171875 1.09375 -0.703125 C 0.726562 -1.242188 0.546875 -1.984375 0.546875 -2.921875 L 0.546875 -6.15625 C 0.546875 -7.15625 0.722656 -7.910156 1.078125 -8.421875 C 1.441406 -8.941406 2.082031 -9.203125 3 -9.203125 C 3.8125 -9.203125 4.394531 -8.976562 4.75 -8.53125 C 5.113281 -8.09375 5.296875 -7.441406 5.296875 -6.578125 L 5.296875 -5.859375 L 4.09375 -5.859375 L 4.09375 -6.5 C 4.09375 -6.914062 4.070312 -7.238281 4.03125 -7.46875 C 4 -7.695312 3.90625 -7.878906 3.75 -8.015625 C 3.59375 -8.148438 3.347656 -8.21875 3.015625 -8.21875 C 2.660156 -8.21875 2.398438 -8.140625 2.234375 -7.984375 C 2.066406 -7.835938 1.957031 -7.632812 1.90625 -7.375 C 1.851562 -7.125 1.828125 -6.78125 1.828125 -6.34375 L 1.828125 -2.71875 C 1.828125 -2.257812 1.863281 -1.894531 1.9375 -1.625 C 2.007812 -1.363281 2.128906 -1.175781 2.296875 -1.0625 C 2.472656 -0.957031 2.710938 -0.90625 3.015625 -0.90625 C 3.335938 -0.90625 3.578125 -0.972656 3.734375 -1.109375 C 3.890625 -1.253906 3.988281 -1.453125 4.03125 -1.703125 C 4.070312 -1.953125 4.09375 -2.289062 4.09375 -2.71875 L 4.09375 -3.390625 L 5.296875 -3.390625 L 5.296875 -2.71875 C 5.296875 -1.8125 5.125 -1.113281 4.78125 -0.625 C 4.4375 -0.144531 3.84375 0.09375 3 0.09375 Z M 3 0.09375 "/></g></g></g><g fill="rgb(65.098572%, 65.098572%, 65.098572%)" fill-opacity="1"><g transform="translate(250.458833, 268.596194)"><g><path d="M 0.703125 -9.125 L 1.984375 -9.125 L 1.984375 -5.1875 L 4.328125 -5.1875 L 4.328125 -9.125 L 5.59375 -9.125 L 5.59375 0 L 4.328125 0 L 4.328125 -4.265625 L 1.984375 -4.265625 L 1.984375 0 L 0.703125 0 Z M 0.703125 -9.125 "/></g></g></g><g fill="rgb(65.098572%, 65.098572%, 65.098572%)" fill-opacity="1"><g transform="translate(259.796089, 268.596194)"><g><path d="M 0.78125 -9.125 L 2.03125 -9.125 L 2.03125 0 L 0.78125 0 Z M 0.78125 -9.125 "/></g></g></g><g fill="rgb(65.098572%, 65.098572%, 65.098572%)" fill-opacity="1"><g transform="translate(265.60844, 268.596194)"><g><path d="M 1.71875 -8.171875 L 0.171875 -8.171875 L 0.171875 -9.125 L 4.484375 -9.125 L 4.484375 -8.171875 L 2.984375 -8.171875 L 2.984375 0 L 1.71875 0 Z M 1.71875 -8.171875 "/></g></g></g><g fill="rgb(65.098572%, 65.098572%, 65.098572%)" fill-opacity="1"><g transform="translate(273.278968, 268.596194)"><g><path d="M 0.703125 -9.125 L 4.25 -9.125 L 4.25 -8.171875 L 1.984375 -8.171875 L 1.984375 -5.15625 L 3.8125 -5.15625 L 3.8125 -4.265625 L 1.984375 -4.265625 L 1.984375 -0.90625 L 4.265625 -0.90625 L 4.265625 0 L 0.703125 0 Z M 0.703125 -9.125 "/></g></g></g><g fill="rgb(65.098572%, 65.098572%, 65.098572%)" fill-opacity="1"><g transform="translate(280.881919, 268.596194)"><g><path d="M 3 0.09375 C 2.09375 0.09375 1.457031 -0.171875 1.09375 -0.703125 C 0.726562 -1.242188 0.546875 -1.984375 0.546875 -2.921875 L 0.546875 -6.15625 C 0.546875 -7.15625 0.722656 -7.910156 1.078125 -8.421875 C 1.441406 -8.941406 2.082031 -9.203125 3 -9.203125 C 3.8125 -9.203125 4.394531 -8.976562 4.75 -8.53125 C 5.113281 -8.09375 5.296875 -7.441406 5.296875 -6.578125 L 5.296875 -5.859375 L 4.09375 -5.859375 L 4.09375 -6.5 C 4.09375 -6.914062 4.070312 -7.238281 4.03125 -7.46875 C 4 -7.695312 3.90625 -7.878906 3.75 -8.015625 C 3.59375 -8.148438 3.347656 -8.21875 3.015625 -8.21875 C 2.660156 -8.21875 2.398438 -8.140625 2.234375 -7.984375 C 2.066406 -7.835938 1.957031 -7.632812 1.90625 -7.375 C 1.851562 -7.125 1.828125 -6.78125 1.828125 -6.34375 L 1.828125 -2.71875 C 1.828125 -2.257812 1.863281 -1.894531 1.9375 -1.625 C 2.007812 -1.363281 2.128906 -1.175781 2.296875 -1.0625 C 2.472656 -0.957031 2.710938 -0.90625 3.015625 -0.90625 C 3.335938 -0.90625 3.578125 -0.972656 3.734375 -1.109375 C 3.890625 -1.253906 3.988281 -1.453125 4.03125 -1.703125 C 4.070312 -1.953125 4.09375 -2.289062 4.09375 -2.71875 L 4.09375 -3.390625 L 5.296875 -3.390625 L 5.296875 -2.71875 C 5.296875 -1.8125 5.125 -1.113281 4.78125 -0.625 C 4.4375 -0.144531 3.84375 0.09375 3 0.09375 Z M 3 0.09375 "/></g></g></g><g fill="rgb(65.098572%, 65.098572%, 65.098572%)" fill-opacity="1"><g transform="translate(289.701136, 268.596194)"><g><path d="M 1.71875 -8.171875 L 0.171875 -8.171875 L 0.171875 -9.125 L 4.484375 -9.125 L 4.484375 -8.171875 L 2.984375 -8.171875 L 2.984375 0 L 1.71875 0 Z M 1.71875 -8.171875 "/></g></g></g><g fill="rgb(65.098572%, 65.098572%, 65.098572%)" fill-opacity="1"><g transform="translate(297.371664, 268.596194)"><g><path d="M 3.0625 0.09375 C 2.425781 0.09375 1.925781 -0.03125 1.5625 -0.28125 C 1.207031 -0.539062 0.960938 -0.894531 0.828125 -1.34375 C 0.691406 -1.800781 0.625 -2.378906 0.625 -3.078125 L 0.625 -9.125 L 1.84375 -9.125 L 1.84375 -3.015625 C 1.84375 -2.328125 1.921875 -1.800781 2.078125 -1.4375 C 2.242188 -1.082031 2.570312 -0.90625 3.0625 -0.90625 C 3.550781 -0.90625 3.875 -1.082031 4.03125 -1.4375 C 4.195312 -1.800781 4.28125 -2.328125 4.28125 -3.015625 L 4.28125 -9.125 L 5.484375 -9.125 L 5.484375 -3.078125 C 5.484375 -2.378906 5.414062 -1.800781 5.28125 -1.34375 C 5.144531 -0.894531 4.898438 -0.539062 4.546875 -0.28125 C 4.191406 -0.03125 3.695312 0.09375 3.0625 0.09375 Z M 3.0625 0.09375 "/></g></g></g><g fill="rgb(65.098572%, 65.098572%, 65.098572%)" fill-opacity="1"><g transform="translate(306.506211, 268.596194)"><g><path d="M 0.703125 -9.125 L 2.546875 -9.125 C 3.472656 -9.125 4.148438 -8.929688 4.578125 -8.546875 C 5.015625 -8.171875 5.234375 -7.554688 5.234375 -6.703125 C 5.234375 -5.535156 4.851562 -4.828125 4.09375 -4.578125 L 5.390625 0 L 4.171875 0 L 2.96875 -4.28125 L 1.984375 -4.28125 L 1.984375 0 L 0.703125 0 Z M 2.46875 -5.1875 C 3.019531 -5.1875 3.410156 -5.296875 3.640625 -5.515625 C 3.878906 -5.734375 4 -6.128906 4 -6.703125 C 4 -7.078125 3.957031 -7.367188 3.875 -7.578125 C 3.789062 -7.796875 3.644531 -7.957031 3.4375 -8.0625 C 3.226562 -8.164062 2.929688 -8.21875 2.546875 -8.21875 L 1.984375 -8.21875 L 1.984375 -5.1875 Z M 2.46875 -5.1875 "/></g></g></g><g fill="rgb(65.098572%, 65.098572%, 65.098572%)" fill-opacity="1"><g transform="translate(315.370472, 268.596194)"><g><path d="M 0.703125 -9.125 L 4.25 -9.125 L 4.25 -8.171875 L 1.984375 -8.171875 L 1.984375 -5.15625 L 3.8125 -5.15625 L 3.8125 -4.265625 L 1.984375 -4.265625 L 1.984375 -0.90625 L 4.265625 -0.90625 L 4.265625 0 L 0.703125 0 Z M 0.703125 -9.125 "/></g></g></g><g fill="rgb(65.098572%, 65.098572%, 65.098572%)" fill-opacity="1"><g transform="translate(322.973423, 268.596194)"><g><path d="M 2.859375 0.09375 C 2.097656 0.09375 1.515625 -0.140625 1.109375 -0.609375 C 0.703125 -1.078125 0.476562 -1.726562 0.4375 -2.5625 L 1.5625 -2.859375 C 1.601562 -2.273438 1.71875 -1.800781 1.90625 -1.4375 C 2.101562 -1.082031 2.421875 -0.90625 2.859375 -0.90625 C 3.191406 -0.90625 3.441406 -0.992188 3.609375 -1.171875 C 3.773438 -1.359375 3.859375 -1.625 3.859375 -1.96875 C 3.859375 -2.34375 3.78125 -2.65625 3.625 -2.90625 C 3.46875 -3.15625 3.21875 -3.429688 2.875 -3.734375 L 1.34375 -5.078125 C 1.03125 -5.347656 0.804688 -5.640625 0.671875 -5.953125 C 0.535156 -6.265625 0.46875 -6.644531 0.46875 -7.09375 C 0.46875 -7.757812 0.65625 -8.273438 1.03125 -8.640625 C 1.414062 -9.015625 1.941406 -9.203125 2.609375 -9.203125 C 3.328125 -9.203125 3.867188 -9.007812 4.234375 -8.625 C 4.597656 -8.25 4.820312 -7.65625 4.90625 -6.84375 L 3.8125 -6.5625 C 3.78125 -7.09375 3.675781 -7.5 3.5 -7.78125 C 3.332031 -8.070312 3.035156 -8.21875 2.609375 -8.21875 C 2.285156 -8.21875 2.035156 -8.132812 1.859375 -7.96875 C 1.679688 -7.800781 1.59375 -7.550781 1.59375 -7.21875 C 1.59375 -6.945312 1.640625 -6.71875 1.734375 -6.53125 C 1.828125 -6.351562 1.984375 -6.171875 2.203125 -5.984375 L 3.734375 -4.625 C 4.140625 -4.269531 4.457031 -3.882812 4.6875 -3.46875 C 4.925781 -3.0625 5.046875 -2.597656 5.046875 -2.078125 C 5.046875 -1.398438 4.84375 -0.867188 4.4375 -0.484375 C 4.03125 -0.0976562 3.503906 0.09375 2.859375 0.09375 Z M 2.859375 0.09375 "/></g></g></g><g clip-path="url(#id1)"><path fill="rgb(65.098572%, 65.098572%, 65.098572%)" d="M 85.148438 275.898438 C 85.148438 275.898438 91.628906 269.539062 100.046875 266.304688 C 112.957031 261.34375 128.652344 255.886719 120.476562 238.476562 C 127.054688 236.25 134.878906 235.214844 143.675781 236.964844 C 143.675781 236.964844 117.21875 223.203125 98.023438 253.445312 C 103.488281 238.089844 115.515625 232.988281 115.515625 232.988281 C 79.632812 223.332031 85.148438 275.898438 85.148438 275.898438 " fill-opacity="1" fill-rule="nonzero"/></g><g clip-path="url(#id2)"><path fill="rgb(77.648926%, 67.059326%, 34.899902%)" d="M 108.871094 78.648438 L 11.429688 167.027344 L 43.046875 167.027344 L 43.046875 244.152344 L 83.070312 244.152344 C 84.507812 240.414062 86.445312 236.910156 89.054688 234.011719 C 89.769531 233.214844 90.53125 232.484375 91.324219 231.804688 L 55.390625 231.804688 L 55.390625 154.675781 L 43.425781 154.675781 L 108.871094 95.316406 L 174.320312 154.675781 L 162.355469 154.675781 L 162.355469 215.628906 C 162.355469 223.40625 154.449219 228.339844 147.25 225.421875 C 141.707031 223.171875 138.738281 215.859375 141.4375 210.433594 C 152.011719 189.191406 130.863281 174.832031 113.285156 162.125 C 100.339844 152.769531 92.117188 138.945312 92.117188 138.945312 C 92.117188 138.945312 58.875 226.449219 124.683594 226.183594 C 124.683594 226.183594 106.402344 211.996094 104 183.226562 C 114.414062 216.078125 134.375 227.671875 150.4375 231.410156 C 162.84375 234.292969 174.695312 224.855469 174.695312 212.109375 L 174.695312 167.027344 L 206.3125 167.027344 L 108.871094 78.648438 " fill-opacity="1" fill-rule="nonzero"/></g><g fill="rgb(77.648926%, 67.059326%, 34.899902%)" fill-opacity="1"><g transform="translate(175.890724, 190.295028)"><g><path d="M 1.328125 0 C 1.203125 0 1.140625 -0.0703125 1.140625 -0.21875 C 1.140625 -0.644531 1.375 -1.0625 1.84375 -1.46875 C 2.1875 -1.800781 2.445312 -2.09375 2.625 -2.34375 C 2.800781 -2.601562 2.953125 -2.953125 3.078125 -3.390625 C 3.210938 -3.835938 3.351562 -4.5 3.5 -5.375 L 5.78125 -19.390625 L 5.65625 -19.390625 C 4.664062 -19.390625 3.921875 -19.285156 3.421875 -19.078125 C 2.921875 -18.867188 2.535156 -18.65625 2.265625 -18.4375 C 2.003906 -18.226562 1.84375 -18.125 1.78125 -18.125 C 1.65625 -18.125 1.59375 -18.21875 1.59375 -18.40625 C 1.59375 -18.582031 1.625 -18.734375 1.6875 -18.859375 C 1.914062 -19.578125 2.46875 -20.164062 3.34375 -20.625 C 4.226562 -21.082031 5.4375 -21.3125 6.96875 -21.3125 C 7.6875 -21.3125 8.578125 -21.265625 9.640625 -21.171875 C 11.285156 -21.066406 12.269531 -21.015625 12.59375 -21.015625 C 13.78125 -21.015625 14.65625 -21.113281 15.21875 -21.3125 C 15.78125 -21.519531 16.101562 -21.625 16.1875 -21.625 C 16.269531 -21.625 16.328125 -21.609375 16.359375 -21.578125 C 16.390625 -21.546875 16.40625 -21.488281 16.40625 -21.40625 C 16.40625 -21.164062 16.242188 -20.867188 15.921875 -20.515625 C 15.609375 -20.171875 15.125 -19.863281 14.46875 -19.59375 C 13.8125 -19.332031 13.003906 -19.203125 12.046875 -19.203125 C 11.671875 -19.203125 11.3125 -19.210938 10.96875 -19.234375 C 10.632812 -19.253906 10.335938 -19.273438 10.078125 -19.296875 C 9.128906 -19.378906 8.460938 -19.421875 8.078125 -19.421875 L 6.875 -12.015625 L 12.65625 -12.015625 C 12.820312 -12.015625 12.90625 -11.941406 12.90625 -11.796875 C 12.90625 -11.648438 12.773438 -11.40625 12.515625 -11.0625 C 12.265625 -10.726562 11.945312 -10.421875 11.5625 -10.140625 C 11.1875 -9.867188 10.820312 -9.734375 10.46875 -9.734375 C 10.375 -9.734375 10.117188 -9.773438 9.703125 -9.859375 C 8.960938 -10.046875 8.28125 -10.140625 7.65625 -10.140625 L 6.640625 -10.140625 L 5.59375 -4.109375 C 5.550781 -3.765625 5.460938 -3.425781 5.328125 -3.09375 C 5.191406 -2.769531 5.054688 -2.523438 4.921875 -2.359375 L 4.921875 -2.328125 C 5.347656 -2.210938 5.867188 -2.117188 6.484375 -2.046875 C 7.097656 -1.972656 7.671875 -1.9375 8.203125 -1.9375 C 10.023438 -1.9375 11.644531 -2.382812 13.0625 -3.28125 C 13.113281 -3.300781 13.175781 -3.332031 13.25 -3.375 C 13.320312 -3.414062 13.390625 -3.4375 13.453125 -3.4375 C 13.597656 -3.4375 13.671875 -3.335938 13.671875 -3.140625 C 13.671875 -2.703125 13.394531 -2.238281 12.84375 -1.75 C 12.289062 -1.257812 11.582031 -0.84375 10.71875 -0.5 C 9.863281 -0.164062 8.984375 0 8.078125 0 C 7.460938 0 6.519531 -0.101562 5.25 -0.3125 C 4.3125 -0.445312 3.65625 -0.515625 3.28125 -0.515625 C 2.851562 -0.515625 2.441406 -0.425781 2.046875 -0.25 C 1.660156 -0.0820312 1.421875 0 1.328125 0 Z M 1.328125 0 "/></g></g></g><g fill="rgb(77.648926%, 67.059326%, 34.899902%)" fill-opacity="1"><g transform="translate(191.002308, 190.295028)"><g><path d="M 0.890625 0.3125 C 0.335938 0.3125 -0.109375 0.191406 -0.453125 -0.046875 C -0.804688 -0.285156 -0.984375 -0.523438 -0.984375 -0.765625 C -0.984375 -0.929688 -0.835938 -1.195312 -0.546875 -1.5625 C -0.265625 -1.9375 0.03125 -2.273438 0.34375 -2.578125 C 0.664062 -2.890625 0.847656 -3.023438 0.890625 -2.984375 C 1.140625 -2.773438 1.335938 -2.617188 1.484375 -2.515625 C 1.640625 -2.410156 1.84375 -2.359375 2.09375 -2.359375 C 3.09375 -2.359375 4.046875 -3.035156 4.953125 -4.390625 C 5.867188 -5.742188 6.847656 -7.515625 7.890625 -9.703125 L 8.140625 -10.296875 L 6.640625 -16.53125 C 6.390625 -17.445312 6.164062 -18.085938 5.96875 -18.453125 C 5.78125 -18.828125 5.539062 -19.015625 5.25 -19.015625 C 4.882812 -19.015625 4.539062 -18.78125 4.21875 -18.3125 C 3.90625 -17.851562 3.59375 -17.300781 3.28125 -16.65625 C 3.21875 -16.507812 3.148438 -16.382812 3.078125 -16.28125 C 3.015625 -16.175781 2.941406 -16.125 2.859375 -16.125 C 2.710938 -16.125 2.640625 -16.257812 2.640625 -16.53125 C 2.640625 -17.082031 2.816406 -17.765625 3.171875 -18.578125 C 3.535156 -19.398438 4.003906 -20.113281 4.578125 -20.71875 C 5.148438 -21.320312 5.734375 -21.625 6.328125 -21.625 C 7.191406 -21.625 7.828125 -20.859375 8.234375 -19.328125 L 9.859375 -13.03125 L 11.21875 -15.421875 C 12.320312 -17.492188 13.367188 -19.046875 14.359375 -20.078125 C 15.347656 -21.109375 16.328125 -21.625 17.296875 -21.625 C 17.765625 -21.625 18.179688 -21.535156 18.546875 -21.359375 C 18.921875 -21.191406 19.109375 -21.003906 19.109375 -20.796875 C 19.109375 -20.628906 18.976562 -20.351562 18.71875 -19.96875 C 18.46875 -19.582031 18.195312 -19.210938 17.90625 -18.859375 C 17.625 -18.515625 17.460938 -18.363281 17.421875 -18.40625 C 17.191406 -18.601562 17 -18.75 16.84375 -18.84375 C 16.695312 -18.9375 16.488281 -18.984375 16.21875 -18.984375 C 15.832031 -18.984375 15.460938 -18.863281 15.109375 -18.625 C 14.765625 -18.394531 14.390625 -18.023438 13.984375 -17.515625 C 13.015625 -16.285156 11.832031 -14.195312 10.4375 -11.25 L 12.21875 -4.609375 C 12.46875 -3.722656 12.707031 -3.109375 12.9375 -2.765625 C 13.175781 -2.429688 13.460938 -2.265625 13.796875 -2.265625 C 14.203125 -2.265625 14.554688 -2.472656 14.859375 -2.890625 C 15.171875 -3.316406 15.460938 -3.828125 15.734375 -4.421875 C 15.890625 -4.773438 16.039062 -4.953125 16.1875 -4.953125 C 16.3125 -4.953125 16.375 -4.828125 16.375 -4.578125 C 16.375 -4.085938 16.195312 -3.445312 15.84375 -2.65625 C 15.5 -1.863281 15.050781 -1.171875 14.5 -0.578125 C 13.945312 0.015625 13.363281 0.3125 12.75 0.3125 C 12.09375 0.3125 11.535156 -0.117188 11.078125 -0.984375 C 10.617188 -1.859375 10.097656 -3.34375 9.515625 -5.4375 L 8.71875 -8.515625 L 8.546875 -8.078125 C 7.390625 -5.398438 6.132812 -3.332031 4.78125 -1.875 C 3.4375 -0.414062 2.140625 0.3125 0.890625 0.3125 Z M 0.890625 0.3125 "/></g></g></g><g fill="rgb(77.648926%, 67.059326%, 34.899902%)" fill-opacity="1"><g transform="translate(209.062518, 190.295028)"><g><path d="M 7.46875 0.3125 C 5.6875 0.3125 4.3125 -0.335938 3.34375 -1.640625 C 2.382812 -2.941406 1.90625 -4.882812 1.90625 -7.46875 C 1.90625 -10.375 2.472656 -12.894531 3.609375 -15.03125 C 4.742188 -17.175781 6.164062 -18.8125 7.875 -19.9375 C 9.582031 -21.0625 11.257812 -21.625 12.90625 -21.625 C 13.96875 -21.625 14.898438 -21.410156 15.703125 -20.984375 C 16.515625 -20.566406 16.921875 -19.941406 16.921875 -19.109375 C 16.921875 -18.515625 16.6875 -17.859375 16.21875 -17.140625 C 16.09375 -16.972656 15.988281 -16.851562 15.90625 -16.78125 C 15.832031 -16.71875 15.734375 -16.6875 15.609375 -16.6875 C 15.460938 -16.6875 15.359375 -16.75 15.296875 -16.875 C 15.234375 -17.007812 15.191406 -17.164062 15.171875 -17.34375 C 15.148438 -17.53125 15.128906 -17.664062 15.109375 -17.75 C 14.984375 -18.445312 14.660156 -18.992188 14.140625 -19.390625 C 13.617188 -19.796875 12.890625 -20 11.953125 -20 C 10.296875 -20 8.90625 -19.367188 7.78125 -18.109375 C 6.664062 -16.847656 5.835938 -15.296875 5.296875 -13.453125 C 4.753906 -11.609375 4.484375 -9.816406 4.484375 -8.078125 C 4.484375 -6.085938 4.851562 -4.550781 5.59375 -3.46875 C 6.332031 -2.382812 7.375 -1.84375 8.71875 -1.84375 C 9.832031 -1.84375 10.875 -2.203125 11.84375 -2.921875 C 12.8125 -3.640625 13.625 -4.660156 14.28125 -5.984375 C 14.40625 -6.210938 14.53125 -6.328125 14.65625 -6.328125 C 14.757812 -6.328125 14.8125 -6.210938 14.8125 -5.984375 C 14.8125 -5.867188 14.800781 -5.75 14.78125 -5.625 C 14.757812 -5.5 14.738281 -5.40625 14.71875 -5.34375 C 14.40625 -4.257812 13.890625 -3.285156 13.171875 -2.421875 C 12.460938 -1.566406 11.601562 -0.894531 10.59375 -0.40625 C 9.59375 0.0703125 8.550781 0.3125 7.46875 0.3125 Z M 7.46875 0.3125 "/></g></g></g><g fill="rgb(77.648926%, 67.059326%, 34.899902%)" fill-opacity="1"><g transform="translate(225.371976, 190.295028)"><g><path d="M 1.328125 0 C 1.203125 0 1.140625 -0.0703125 1.140625 -0.21875 C 1.140625 -0.644531 1.375 -1.0625 1.84375 -1.46875 C 2.1875 -1.800781 2.445312 -2.09375 2.625 -2.34375 C 2.800781 -2.601562 2.953125 -2.953125 3.078125 -3.390625 C 3.210938 -3.835938 3.351562 -4.5 3.5 -5.375 L 5.78125 -19.390625 L 5.65625 -19.390625 C 4.664062 -19.390625 3.921875 -19.285156 3.421875 -19.078125 C 2.921875 -18.867188 2.535156 -18.65625 2.265625 -18.4375 C 2.003906 -18.226562 1.84375 -18.125 1.78125 -18.125 C 1.65625 -18.125 1.59375 -18.21875 1.59375 -18.40625 C 1.59375 -18.582031 1.625 -18.734375 1.6875 -18.859375 C 1.914062 -19.578125 2.46875 -20.164062 3.34375 -20.625 C 4.226562 -21.082031 5.4375 -21.3125 6.96875 -21.3125 C 7.6875 -21.3125 8.578125 -21.265625 9.640625 -21.171875 C 11.285156 -21.066406 12.269531 -21.015625 12.59375 -21.015625 C 13.78125 -21.015625 14.65625 -21.113281 15.21875 -21.3125 C 15.78125 -21.519531 16.101562 -21.625 16.1875 -21.625 C 16.269531 -21.625 16.328125 -21.609375 16.359375 -21.578125 C 16.390625 -21.546875 16.40625 -21.488281 16.40625 -21.40625 C 16.40625 -21.164062 16.242188 -20.867188 15.921875 -20.515625 C 15.609375 -20.171875 15.125 -19.863281 14.46875 -19.59375 C 13.8125 -19.332031 13.003906 -19.203125 12.046875 -19.203125 C 11.671875 -19.203125 11.3125 -19.210938 10.96875 -19.234375 C 10.632812 -19.253906 10.335938 -19.273438 10.078125 -19.296875 C 9.128906 -19.378906 8.460938 -19.421875 8.078125 -19.421875 L 6.875 -12.015625 L 12.65625 -12.015625 C 12.820312 -12.015625 12.90625 -11.941406 12.90625 -11.796875 C 12.90625 -11.648438 12.773438 -11.40625 12.515625 -11.0625 C 12.265625 -10.726562 11.945312 -10.421875 11.5625 -10.140625 C 11.1875 -9.867188 10.820312 -9.734375 10.46875 -9.734375 C 10.375 -9.734375 10.117188 -9.773438 9.703125 -9.859375 C 8.960938 -10.046875 8.28125 -10.140625 7.65625 -10.140625 L 6.640625 -10.140625 L 5.59375 -4.109375 C 5.550781 -3.765625 5.460938 -3.425781 5.328125 -3.09375 C 5.191406 -2.769531 5.054688 -2.523438 4.921875 -2.359375 L 4.921875 -2.328125 C 5.347656 -2.210938 5.867188 -2.117188 6.484375 -2.046875 C 7.097656 -1.972656 7.671875 -1.9375 8.203125 -1.9375 C 10.023438 -1.9375 11.644531 -2.382812 13.0625 -3.28125 C 13.113281 -3.300781 13.175781 -3.332031 13.25 -3.375 C 13.320312 -3.414062 13.390625 -3.4375 13.453125 -3.4375 C 13.597656 -3.4375 13.671875 -3.335938 13.671875 -3.140625 C 13.671875 -2.703125 13.394531 -2.238281 12.84375 -1.75 C 12.289062 -1.257812 11.582031 -0.84375 10.71875 -0.5 C 9.863281 -0.164062 8.984375 0 8.078125 0 C 7.460938 0 6.519531 -0.101562 5.25 -0.3125 C 4.3125 -0.445312 3.65625 -0.515625 3.28125 -0.515625 C 2.851562 -0.515625 2.441406 -0.425781 2.046875 -0.25 C 1.660156 -0.0820312 1.421875 0 1.328125 0 Z M 1.328125 0 "/></g></g></g><g fill="rgb(77.648926%, 67.059326%, 34.899902%)" fill-opacity="1"><g transform="translate(240.483561, 190.295028)"><g><path d="M -0.890625 0 C -0.953125 0 -1 -0.03125 -1.03125 -0.09375 C -1.0625 -0.15625 -1.078125 -0.21875 -1.078125 -0.28125 C -1.078125 -0.539062 -0.960938 -0.847656 -0.734375 -1.203125 C -0.515625 -1.566406 -0.238281 -1.875 0.09375 -2.125 C 0.4375 -2.382812 0.765625 -2.515625 1.078125 -2.515625 L 1.78125 -2.515625 C 2.070312 -2.890625 2.3125 -3.316406 2.5 -3.796875 C 2.695312 -4.273438 2.867188 -4.96875 3.015625 -5.875 L 4.890625 -16.796875 C 5.003906 -17.640625 5.253906 -18.429688 5.640625 -19.171875 C 6.035156 -19.910156 6.625 -20.65625 7.40625 -21.40625 C 8.78125 -22.78125 10.296875 -23.46875 11.953125 -23.46875 C 12.359375 -23.46875 12.769531 -23.429688 13.1875 -23.359375 C 13.613281 -23.285156 13.957031 -23.179688 14.21875 -23.046875 C 14.46875 -22.898438 14.59375 -22.773438 14.59375 -22.671875 C 14.59375 -22.484375 14.351562 -22.273438 13.875 -22.046875 C 13.40625 -21.828125 13.03125 -21.71875 12.75 -21.71875 C 12.664062 -21.71875 12.4375 -21.769531 12.0625 -21.875 C 11.695312 -21.976562 11.320312 -22.03125 10.9375 -22.03125 C 10.21875 -22.03125 9.539062 -21.78125 8.90625 -21.28125 C 8.5 -20.957031 8.164062 -20.476562 7.90625 -19.84375 C 7.65625 -19.207031 7.4375 -18.398438 7.25 -17.421875 L 4.96875 -4.578125 C 4.894531 -4.148438 4.765625 -3.734375 4.578125 -3.328125 C 4.390625 -2.929688 4.175781 -2.617188 3.9375 -2.390625 L 3.9375 -2.359375 C 4.320312 -2.285156 5.023438 -2.210938 6.046875 -2.140625 C 7.078125 -2.066406 7.878906 -2.03125 8.453125 -2.03125 C 10.234375 -2.03125 11.847656 -2.457031 13.296875 -3.3125 C 13.484375 -3.4375 13.617188 -3.5 13.703125 -3.5 C 13.847656 -3.5 13.921875 -3.382812 13.921875 -3.15625 C 13.921875 -2.769531 13.632812 -2.328125 13.0625 -1.828125 C 12.5 -1.328125 11.742188 -0.894531 10.796875 -0.53125 C 9.847656 -0.175781 8.835938 0 7.765625 0 C 7.253906 0 6.304688 -0.0820312 4.921875 -0.25 C 4.710938 -0.269531 4.25 -0.316406 3.53125 -0.390625 C 2.8125 -0.472656 2.164062 -0.515625 1.59375 -0.515625 C 1 -0.515625 0.550781 -0.476562 0.25 -0.40625 C -0.0390625 -0.34375 -0.28125 -0.257812 -0.46875 -0.15625 C -0.664062 -0.0507812 -0.804688 0 -0.890625 0 Z M -0.890625 0 "/></g></g></g><g fill="rgb(77.648926%, 67.059326%, 34.899902%)" fill-opacity="1"><g transform="translate(254.919417, 190.295028)"><g><path d="M -0.890625 0 C -0.953125 0 -1 -0.03125 -1.03125 -0.09375 C -1.0625 -0.15625 -1.078125 -0.21875 -1.078125 -0.28125 C -1.078125 -0.539062 -0.960938 -0.847656 -0.734375 -1.203125 C -0.515625 -1.566406 -0.238281 -1.875 0.09375 -2.125 C 0.4375 -2.382812 0.765625 -2.515625 1.078125 -2.515625 L 1.78125 -2.515625 C 2.070312 -2.890625 2.3125 -3.316406 2.5 -3.796875 C 2.695312 -4.273438 2.867188 -4.96875 3.015625 -5.875 L 4.890625 -16.796875 C 5.003906 -17.640625 5.253906 -18.429688 5.640625 -19.171875 C 6.035156 -19.910156 6.625 -20.65625 7.40625 -21.40625 C 8.78125 -22.78125 10.296875 -23.46875 11.953125 -23.46875 C 12.359375 -23.46875 12.769531 -23.429688 13.1875 -23.359375 C 13.613281 -23.285156 13.957031 -23.179688 14.21875 -23.046875 C 14.46875 -22.898438 14.59375 -22.773438 14.59375 -22.671875 C 14.59375 -22.484375 14.351562 -22.273438 13.875 -22.046875 C 13.40625 -21.828125 13.03125 -21.71875 12.75 -21.71875 C 12.664062 -21.71875 12.4375 -21.769531 12.0625 -21.875 C 11.695312 -21.976562 11.320312 -22.03125 10.9375 -22.03125 C 10.21875 -22.03125 9.539062 -21.78125 8.90625 -21.28125 C 8.5 -20.957031 8.164062 -20.476562 7.90625 -19.84375 C 7.65625 -19.207031 7.4375 -18.398438 7.25 -17.421875 L 4.96875 -4.578125 C 4.894531 -4.148438 4.765625 -3.734375 4.578125 -3.328125 C 4.390625 -2.929688 4.175781 -2.617188 3.9375 -2.390625 L 3.9375 -2.359375 C 4.320312 -2.285156 5.023438 -2.210938 6.046875 -2.140625 C 7.078125 -2.066406 7.878906 -2.03125 8.453125 -2.03125 C 10.234375 -2.03125 11.847656 -2.457031 13.296875 -3.3125 C 13.484375 -3.4375 13.617188 -3.5 13.703125 -3.5 C 13.847656 -3.5 13.921875 -3.382812 13.921875 -3.15625 C 13.921875 -2.769531 13.632812 -2.328125 13.0625 -1.828125 C 12.5 -1.328125 11.742188 -0.894531 10.796875 -0.53125 C 9.847656 -0.175781 8.835938 0 7.765625 0 C 7.253906 0 6.304688 -0.0820312 4.921875 -0.25 C 4.710938 -0.269531 4.25 -0.316406 3.53125 -0.390625 C 2.8125 -0.472656 2.164062 -0.515625 1.59375 -0.515625 C 1 -0.515625 0.550781 -0.476562 0.25 -0.40625 C -0.0390625 -0.34375 -0.28125 -0.257812 -0.46875 -0.15625 C -0.664062 -0.0507812 -0.804688 0 -0.890625 0 Z M -0.890625 0 "/></g></g></g><g fill="rgb(77.648926%, 67.059326%, 34.899902%)" fill-opacity="1"><g transform="translate(269.355274, 190.295028)"><g><path d="M 1.328125 0 C 1.203125 0 1.140625 -0.0703125 1.140625 -0.21875 C 1.140625 -0.644531 1.375 -1.0625 1.84375 -1.46875 C 2.1875 -1.800781 2.445312 -2.09375 2.625 -2.34375 C 2.800781 -2.601562 2.953125 -2.953125 3.078125 -3.390625 C 3.210938 -3.835938 3.351562 -4.5 3.5 -5.375 L 5.78125 -19.390625 L 5.65625 -19.390625 C 4.664062 -19.390625 3.921875 -19.285156 3.421875 -19.078125 C 2.921875 -18.867188 2.535156 -18.65625 2.265625 -18.4375 C 2.003906 -18.226562 1.84375 -18.125 1.78125 -18.125 C 1.65625 -18.125 1.59375 -18.21875 1.59375 -18.40625 C 1.59375 -18.582031 1.625 -18.734375 1.6875 -18.859375 C 1.914062 -19.578125 2.46875 -20.164062 3.34375 -20.625 C 4.226562 -21.082031 5.4375 -21.3125 6.96875 -21.3125 C 7.6875 -21.3125 8.578125 -21.265625 9.640625 -21.171875 C 11.285156 -21.066406 12.269531 -21.015625 12.59375 -21.015625 C 13.78125 -21.015625 14.65625 -21.113281 15.21875 -21.3125 C 15.78125 -21.519531 16.101562 -21.625 16.1875 -21.625 C 16.269531 -21.625 16.328125 -21.609375 16.359375 -21.578125 C 16.390625 -21.546875 16.40625 -21.488281 16.40625 -21.40625 C 16.40625 -21.164062 16.242188 -20.867188 15.921875 -20.515625 C 15.609375 -20.171875 15.125 -19.863281 14.46875 -19.59375 C 13.8125 -19.332031 13.003906 -19.203125 12.046875 -19.203125 C 11.671875 -19.203125 11.3125 -19.210938 10.96875 -19.234375 C 10.632812 -19.253906 10.335938 -19.273438 10.078125 -19.296875 C 9.128906 -19.378906 8.460938 -19.421875 8.078125 -19.421875 L 6.875 -12.015625 L 12.65625 -12.015625 C 12.820312 -12.015625 12.90625 -11.941406 12.90625 -11.796875 C 12.90625 -11.648438 12.773438 -11.40625 12.515625 -11.0625 C 12.265625 -10.726562 11.945312 -10.421875 11.5625 -10.140625 C 11.1875 -9.867188 10.820312 -9.734375 10.46875 -9.734375 C 10.375 -9.734375 10.117188 -9.773438 9.703125 -9.859375 C 8.960938 -10.046875 8.28125 -10.140625 7.65625 -10.140625 L 6.640625 -10.140625 L 5.59375 -4.109375 C 5.550781 -3.765625 5.460938 -3.425781 5.328125 -3.09375 C 5.191406 -2.769531 5.054688 -2.523438 4.921875 -2.359375 L 4.921875 -2.328125 C 5.347656 -2.210938 5.867188 -2.117188 6.484375 -2.046875 C 7.097656 -1.972656 7.671875 -1.9375 8.203125 -1.9375 C 10.023438 -1.9375 11.644531 -2.382812 13.0625 -3.28125 C 13.113281 -3.300781 13.175781 -3.332031 13.25 -3.375 C 13.320312 -3.414062 13.390625 -3.4375 13.453125 -3.4375 C 13.597656 -3.4375 13.671875 -3.335938 13.671875 -3.140625 C 13.671875 -2.703125 13.394531 -2.238281 12.84375 -1.75 C 12.289062 -1.257812 11.582031 -0.84375 10.71875 -0.5 C 9.863281 -0.164062 8.984375 0 8.078125 0 C 7.460938 0 6.519531 -0.101562 5.25 -0.3125 C 4.3125 -0.445312 3.65625 -0.515625 3.28125 -0.515625 C 2.851562 -0.515625 2.441406 -0.425781 2.046875 -0.25 C 1.660156 -0.0820312 1.421875 0 1.328125 0 Z M 1.328125 0 "/></g></g></g><g fill="rgb(77.648926%, 67.059326%, 34.899902%)" fill-opacity="1"><g transform="translate(284.466858, 190.295028)"><g><path d="M 13.640625 0.3125 C 13.390625 0.3125 13.265625 0.1875 13.265625 -0.0625 C 13.265625 -0.101562 13.304688 -0.328125 13.390625 -0.734375 C 13.554688 -1.660156 13.640625 -2.328125 13.640625 -2.734375 C 13.640625 -3.179688 13.546875 -3.660156 13.359375 -4.171875 C 13.015625 -5.242188 12.390625 -6.554688 11.484375 -8.109375 L 10.296875 -10.328125 C 9.472656 -11.835938 8.710938 -13.378906 8.015625 -14.953125 L 7.734375 -15.609375 L 7.6875 -15.609375 L 5.75 -3.375 C 5.6875 -2.820312 5.519531 -2.394531 5.25 -2.09375 L 5.25 -2.0625 C 5.800781 -1.875 6.210938 -1.78125 6.484375 -1.78125 C 6.765625 -1.78125 7.019531 -1.835938 7.25 -1.953125 C 7.476562 -2.066406 7.625 -2.125 7.6875 -2.125 C 7.78125 -2.125 7.828125 -2.0625 7.828125 -1.9375 C 7.828125 -1.75 7.695312 -1.523438 7.4375 -1.265625 C 6.65625 -0.421875 6.019531 0 5.53125 0 C 5.34375 0 5.046875 -0.0820312 4.640625 -0.25 C 4.578125 -0.269531 4.425781 -0.316406 4.1875 -0.390625 C 3.957031 -0.472656 3.726562 -0.515625 3.5 -0.515625 C 3.175781 -0.515625 2.847656 -0.425781 2.515625 -0.25 C 2.191406 -0.0820312 2 0 1.9375 0 C 1.832031 0 1.78125 -0.09375 1.78125 -0.28125 C 1.78125 -0.476562 1.847656 -0.703125 1.984375 -0.953125 C 2.117188 -1.203125 2.285156 -1.40625 2.484375 -1.5625 C 2.953125 -1.976562 3.269531 -2.273438 3.4375 -2.453125 C 3.601562 -2.640625 3.734375 -2.867188 3.828125 -3.140625 C 3.921875 -3.421875 4.015625 -3.910156 4.109375 -4.609375 L 6.453125 -19.359375 L 5.46875 -19.421875 C 5.039062 -19.472656 4.609375 -19.5 4.171875 -19.5 C 3.578125 -19.5 3.078125 -19.40625 2.671875 -19.21875 C 2.265625 -19.039062 1.914062 -18.757812 1.625 -18.375 C 1.582031 -18.3125 1.507812 -18.203125 1.40625 -18.046875 C 1.3125 -17.890625 1.222656 -17.8125 1.140625 -17.8125 C 1.035156 -17.8125 0.984375 -17.90625 0.984375 -18.09375 C 0.984375 -18.300781 1.015625 -18.472656 1.078125 -18.609375 C 1.273438 -19.472656 1.710938 -20.140625 2.390625 -20.609375 C 3.066406 -21.078125 3.898438 -21.3125 4.890625 -21.3125 L 5.890625 -21.28125 C 6.429688 -21.25 6.882812 -21.234375 7.25 -21.234375 C 7.613281 -21.234375 8.003906 -21.25 8.421875 -21.28125 L 9.0625 -21.3125 C 8.957031 -20.800781 8.90625 -20.375 8.90625 -20.03125 C 8.90625 -19.164062 9.113281 -18.160156 9.53125 -17.015625 C 9.957031 -15.867188 10.609375 -14.476562 11.484375 -12.84375 L 13.203125 -9.578125 C 13.921875 -8.296875 14.457031 -7.222656 14.8125 -6.359375 L 14.875 -6.359375 L 16.5625 -17.625 C 16.863281 -19.613281 17.304688 -21.253906 17.890625 -22.546875 C 18.472656 -23.835938 19.21875 -24.84375 20.125 -25.5625 C 20.78125 -26.113281 21.46875 -26.515625 22.1875 -26.765625 C 22.914062 -27.023438 23.882812 -27.207031 25.09375 -27.3125 C 25.300781 -27.332031 25.597656 -27.382812 25.984375 -27.46875 C 26.171875 -27.539062 26.296875 -27.578125 26.359375 -27.578125 C 26.460938 -27.578125 26.515625 -27.519531 26.515625 -27.40625 C 26.515625 -27.15625 26.367188 -26.875 26.078125 -26.5625 C 25.796875 -26.257812 25.304688 -26.066406 24.609375 -25.984375 C 24.484375 -25.960938 24.171875 -25.925781 23.671875 -25.875 C 23.171875 -25.820312 22.707031 -25.691406 22.28125 -25.484375 C 21.863281 -25.285156 21.472656 -24.992188 21.109375 -24.609375 C 20.453125 -23.890625 19.925781 -22.988281 19.53125 -21.90625 C 19.144531 -20.820312 18.828125 -19.539062 18.578125 -18.0625 L 16.1875 -3.34375 C 16.125 -2.894531 15.929688 -2.382812 15.609375 -1.8125 C 15.296875 -1.238281 14.945312 -0.738281 14.5625 -0.3125 C 14.1875 0.101562 13.878906 0.3125 13.640625 0.3125 Z M 13.640625 0.3125 "/></g></g></g><g fill="rgb(77.648926%, 67.059326%, 34.899902%)" fill-opacity="1"><g transform="translate(304.584964, 190.295028)"><g><path d="M 4.796875 0.03125 C 4.753906 0.03125 4.71875 0.015625 4.6875 -0.015625 C 4.65625 -0.046875 4.640625 -0.09375 4.640625 -0.15625 C 4.640625 -0.320312 4.722656 -0.535156 4.890625 -0.796875 C 5.066406 -1.066406 5.238281 -1.28125 5.40625 -1.4375 C 5.75 -1.75 6.007812 -2.007812 6.1875 -2.21875 C 6.363281 -2.4375 6.519531 -2.75 6.65625 -3.15625 C 6.800781 -3.570312 6.945312 -4.175781 7.09375 -4.96875 L 9.546875 -19.265625 L 7.46875 -19.265625 C 5.96875 -19.265625 4.929688 -19.09375 4.359375 -18.75 C 3.785156 -18.414062 3.5 -17.816406 3.5 -16.953125 C 3.5 -16.359375 3.59375 -15.867188 3.78125 -15.484375 C 3.976562 -15.109375 4.078125 -14.882812 4.078125 -14.8125 C 4.078125 -14.644531 3.972656 -14.382812 3.765625 -14.03125 C 3.566406 -13.6875 3.332031 -13.375 3.0625 -13.09375 C 2.800781 -12.820312 2.585938 -12.6875 2.421875 -12.6875 C 2.359375 -12.6875 2.300781 -12.726562 2.25 -12.8125 C 2.101562 -13.050781 1.984375 -13.375 1.890625 -13.78125 C 1.796875 -14.195312 1.75 -14.628906 1.75 -15.078125 C 1.75 -16.304688 2.054688 -17.390625 2.671875 -18.328125 C 3.285156 -19.273438 4.15625 -20.007812 5.28125 -20.53125 C 6.40625 -21.050781 7.71875 -21.3125 9.21875 -21.3125 L 14.5 -21.3125 C 15.5625 -21.3125 16.378906 -21.390625 16.953125 -21.546875 C 17.523438 -21.703125 17.921875 -21.941406 18.140625 -22.265625 C 18.359375 -22.597656 18.46875 -23.039062 18.46875 -23.59375 C 18.46875 -24.207031 18.375 -24.695312 18.1875 -25.0625 C 18 -25.4375 17.90625 -25.65625 17.90625 -25.71875 C 17.90625 -25.851562 18.007812 -26.09375 18.21875 -26.4375 C 18.425781 -26.789062 18.65625 -27.109375 18.90625 -27.390625 C 19.164062 -27.679688 19.375 -27.828125 19.53125 -27.828125 C 19.632812 -27.828125 19.695312 -27.796875 19.71875 -27.734375 C 20.09375 -27.140625 20.28125 -26.34375 20.28125 -25.34375 C 20.28125 -24.132812 19.972656 -23.066406 19.359375 -22.140625 C 18.742188 -21.222656 17.863281 -20.515625 16.71875 -20.015625 C 15.582031 -19.515625 14.257812 -19.265625 12.75 -19.265625 L 11.796875 -19.265625 L 9.09375 -3.4375 C 9.050781 -3.113281 8.976562 -2.851562 8.875 -2.65625 C 8.769531 -2.457031 8.628906 -2.25 8.453125 -2.03125 L 8.453125 -1.96875 C 8.816406 -1.820312 9.222656 -1.75 9.671875 -1.75 C 9.941406 -1.75 10.203125 -1.800781 10.453125 -1.90625 C 10.710938 -2.007812 10.882812 -2.0625 10.96875 -2.0625 C 11.09375 -2.0625 11.15625 -2.007812 11.15625 -1.90625 C 11.15625 -1.738281 11.070312 -1.5625 10.90625 -1.375 C 10.457031 -0.863281 10.070312 -0.5 9.75 -0.28125 C 9.4375 -0.0703125 9.144531 0.03125 8.875 0.03125 C 8.65625 0.03125 8.273438 -0.0507812 7.734375 -0.21875 C 7.160156 -0.375 6.765625 -0.453125 6.546875 -0.453125 C 6.253906 -0.453125 5.863281 -0.351562 5.375 -0.15625 C 5.050781 -0.03125 4.859375 0.03125 4.796875 0.03125 Z M 4.796875 0.03125 "/></g></g></g><g fill="rgb(77.648926%, 67.059326%, 34.899902%)" fill-opacity="1"><g transform="translate(194.230567, 233.045025)"><g><path d="M 1.296875 0 C 1.191406 0 1.140625 -0.0625 1.140625 -0.1875 C 1.140625 -0.363281 1.210938 -0.59375 1.359375 -0.875 C 1.515625 -1.15625 1.6875 -1.351562 1.875 -1.46875 C 2.300781 -1.78125 2.644531 -2.125 2.90625 -2.5 C 3.175781 -2.882812 3.375 -3.429688 3.5 -4.140625 L 5.53125 -16.21875 C 5.613281 -16.726562 5.945312 -17.238281 6.53125 -17.75 C 7.113281 -18.269531 7.640625 -18.53125 8.109375 -18.53125 C 8.335938 -18.53125 8.453125 -18.476562 8.453125 -18.375 C 8.453125 -18.3125 8.347656 -18.132812 8.140625 -17.84375 C 7.929688 -17.5625 7.78125 -17.082031 7.6875 -16.40625 L 5.59375 -3.75 C 5.46875 -3.007812 5.242188 -2.46875 4.921875 -2.125 L 4.921875 -2.09375 C 5.515625 -1.945312 6.40625 -1.875 7.59375 -1.875 C 9.1875 -1.875 10.554688 -2.328125 11.703125 -3.234375 C 12.847656 -4.148438 13.71875 -5.398438 14.3125 -6.984375 C 14.90625 -8.578125 15.203125 -10.363281 15.203125 -12.34375 C 15.203125 -14.925781 14.679688 -16.84375 13.640625 -18.09375 C 12.597656 -19.34375 10.96875 -19.96875 8.75 -19.96875 C 6.132812 -19.96875 4.023438 -19.066406 2.421875 -17.265625 C 2.359375 -17.179688 2.269531 -17.078125 2.15625 -16.953125 C 2.050781 -16.828125 1.96875 -16.738281 1.90625 -16.6875 C 1.84375 -16.644531 1.78125 -16.625 1.71875 -16.625 C 1.550781 -16.625 1.46875 -16.703125 1.46875 -16.859375 C 1.46875 -17.003906 1.539062 -17.242188 1.6875 -17.578125 C 2.320312 -18.835938 3.328125 -19.828125 4.703125 -20.546875 C 6.085938 -21.265625 7.691406 -21.625 9.515625 -21.625 C 12.203125 -21.625 14.253906 -20.835938 15.671875 -19.265625 C 17.097656 -17.703125 17.8125 -15.5 17.8125 -12.65625 C 17.8125 -10.445312 17.40625 -8.375 16.59375 -6.4375 C 15.789062 -4.5 14.609375 -2.941406 13.046875 -1.765625 C 11.492188 -0.585938 9.644531 0 7.5 0 C 6.820312 0 5.972656 -0.0820312 4.953125 -0.25 C 4.128906 -0.375 3.539062 -0.4375 3.1875 -0.4375 C 2.71875 -0.4375 2.304688 -0.363281 1.953125 -0.21875 C 1.609375 -0.0703125 1.390625 0 1.296875 0 Z M 1.296875 0 "/></g></g></g><g fill="rgb(77.648926%, 67.059326%, 34.899902%)" fill-opacity="1"><g transform="translate(212.505778, 233.045025)"><g><path d="M 1.328125 0 C 1.203125 0 1.140625 -0.0703125 1.140625 -0.21875 C 1.140625 -0.644531 1.375 -1.0625 1.84375 -1.46875 C 2.1875 -1.800781 2.445312 -2.09375 2.625 -2.34375 C 2.800781 -2.601562 2.953125 -2.953125 3.078125 -3.390625 C 3.210938 -3.835938 3.351562 -4.5 3.5 -5.375 L 5.78125 -19.390625 L 5.65625 -19.390625 C 4.664062 -19.390625 3.921875 -19.285156 3.421875 -19.078125 C 2.921875 -18.867188 2.535156 -18.65625 2.265625 -18.4375 C 2.003906 -18.226562 1.84375 -18.125 1.78125 -18.125 C 1.65625 -18.125 1.59375 -18.21875 1.59375 -18.40625 C 1.59375 -18.582031 1.625 -18.734375 1.6875 -18.859375 C 1.914062 -19.578125 2.46875 -20.164062 3.34375 -20.625 C 4.226562 -21.082031 5.4375 -21.3125 6.96875 -21.3125 C 7.6875 -21.3125 8.578125 -21.265625 9.640625 -21.171875 C 11.285156 -21.066406 12.269531 -21.015625 12.59375 -21.015625 C 13.78125 -21.015625 14.65625 -21.113281 15.21875 -21.3125 C 15.78125 -21.519531 16.101562 -21.625 16.1875 -21.625 C 16.269531 -21.625 16.328125 -21.609375 16.359375 -21.578125 C 16.390625 -21.546875 16.40625 -21.488281 16.40625 -21.40625 C 16.40625 -21.164062 16.242188 -20.867188 15.921875 -20.515625 C 15.609375 -20.171875 15.125 -19.863281 14.46875 -19.59375 C 13.8125 -19.332031 13.003906 -19.203125 12.046875 -19.203125 C 11.671875 -19.203125 11.3125 -19.210938 10.96875 -19.234375 C 10.632812 -19.253906 10.335938 -19.273438 10.078125 -19.296875 C 9.128906 -19.378906 8.460938 -19.421875 8.078125 -19.421875 L 6.875 -12.015625 L 12.65625 -12.015625 C 12.820312 -12.015625 12.90625 -11.941406 12.90625 -11.796875 C 12.90625 -11.648438 12.773438 -11.40625 12.515625 -11.0625 C 12.265625 -10.726562 11.945312 -10.421875 11.5625 -10.140625 C 11.1875 -9.867188 10.820312 -9.734375 10.46875 -9.734375 C 10.375 -9.734375 10.117188 -9.773438 9.703125 -9.859375 C 8.960938 -10.046875 8.28125 -10.140625 7.65625 -10.140625 L 6.640625 -10.140625 L 5.59375 -4.109375 C 5.550781 -3.765625 5.460938 -3.425781 5.328125 -3.09375 C 5.191406 -2.769531 5.054688 -2.523438 4.921875 -2.359375 L 4.921875 -2.328125 C 5.347656 -2.210938 5.867188 -2.117188 6.484375 -2.046875 C 7.097656 -1.972656 7.671875 -1.9375 8.203125 -1.9375 C 10.023438 -1.9375 11.644531 -2.382812 13.0625 -3.28125 C 13.113281 -3.300781 13.175781 -3.332031 13.25 -3.375 C 13.320312 -3.414062 13.390625 -3.4375 13.453125 -3.4375 C 13.597656 -3.4375 13.671875 -3.335938 13.671875 -3.140625 C 13.671875 -2.703125 13.394531 -2.238281 12.84375 -1.75 C 12.289062 -1.257812 11.582031 -0.84375 10.71875 -0.5 C 9.863281 -0.164062 8.984375 0 8.078125 0 C 7.460938 0 6.519531 -0.101562 5.25 -0.3125 C 4.3125 -0.445312 3.65625 -0.515625 3.28125 -0.515625 C 2.851562 -0.515625 2.441406 -0.425781 2.046875 -0.25 C 1.660156 -0.0820312 1.421875 0 1.328125 0 Z M 1.328125 0 "/></g></g></g><g fill="rgb(77.648926%, 67.059326%, 34.899902%)" fill-opacity="1"><g transform="translate(227.617361, 233.045025)"><g><path d="M 4.796875 0.3125 C 3.867188 0.3125 3.078125 0.125 2.421875 -0.25 C 1.765625 -0.632812 1.269531 -1.09375 0.9375 -1.625 C 0.601562 -2.15625 0.414062 -2.660156 0.375 -3.140625 C 0.375 -3.546875 0.484375 -3.960938 0.703125 -4.390625 C 0.929688 -4.816406 1.195312 -5.171875 1.5 -5.453125 C 1.8125 -5.742188 2.050781 -5.890625 2.21875 -5.890625 C 2.3125 -5.890625 2.359375 -5.832031 2.359375 -5.71875 C 2.460938 -4.59375 2.769531 -3.5625 3.28125 -2.625 C 3.800781 -1.695312 4.722656 -1.234375 6.046875 -1.234375 C 7.117188 -1.234375 7.96875 -1.554688 8.59375 -2.203125 C 9.226562 -2.859375 9.546875 -3.773438 9.546875 -4.953125 C 9.546875 -5.640625 9.410156 -6.28125 9.140625 -6.875 C 8.878906 -7.46875 8.441406 -8.132812 7.828125 -8.875 L 4.828125 -12.4375 C 4.492188 -12.875 4.234375 -13.320312 4.046875 -13.78125 C 3.867188 -14.238281 3.78125 -14.796875 3.78125 -15.453125 C 3.78125 -16.515625 4.023438 -17.515625 4.515625 -18.453125 C 5.003906 -19.398438 5.71875 -20.164062 6.65625 -20.75 C 7.601562 -21.332031 8.703125 -21.625 9.953125 -21.625 C 10.972656 -21.625 11.8125 -21.410156 12.46875 -20.984375 C 13.125 -20.566406 13.453125 -19.972656 13.453125 -19.203125 C 13.453125 -18.609375 13.207031 -17.921875 12.71875 -17.140625 C 12.53125 -16.835938 12.328125 -16.6875 12.109375 -16.6875 C 11.941406 -16.6875 11.832031 -16.757812 11.78125 -16.90625 C 11.726562 -17.0625 11.679688 -17.34375 11.640625 -17.75 C 11.578125 -19.394531 10.695312 -20.21875 9 -20.21875 C 7.976562 -20.21875 7.179688 -19.953125 6.609375 -19.421875 C 6.035156 -18.898438 5.75 -18.191406 5.75 -17.296875 C 5.75 -16.390625 6.125 -15.476562 6.875 -14.5625 L 9.828125 -11.15625 C 11.097656 -9.65625 11.734375 -8.085938 11.734375 -6.453125 C 11.734375 -5.265625 11.398438 -4.148438 10.734375 -3.109375 C 10.066406 -2.078125 9.195312 -1.25 8.125 -0.625 C 7.050781 0 5.941406 0.3125 4.796875 0.3125 Z M 4.796875 0.3125 "/></g></g></g><g fill="rgb(77.648926%, 67.059326%, 34.899902%)" fill-opacity="1"><g transform="translate(241.070339, 233.045025)"><g><path d="M 1.328125 0 C 1.203125 0 1.140625 -0.0703125 1.140625 -0.21875 C 1.140625 -0.457031 1.253906 -0.757812 1.484375 -1.125 C 1.722656 -1.5 2.003906 -1.75 2.328125 -1.875 L 3.1875 -2.25 C 3.476562 -2.382812 3.679688 -2.640625 3.796875 -3.015625 C 3.910156 -3.398438 4.023438 -4.050781 4.140625 -4.96875 L 6.203125 -19.53125 C 5.796875 -19.53125 5.40625 -19.519531 5.03125 -19.5 C 4.601562 -19.457031 4.210938 -19.394531 3.859375 -19.3125 C 3.515625 -19.238281 3.300781 -19.203125 3.21875 -19.203125 C 3.101562 -19.203125 3.046875 -19.265625 3.046875 -19.390625 C 3.046875 -19.546875 3.132812 -19.757812 3.3125 -20.03125 C 3.5625 -20.414062 3.847656 -20.707031 4.171875 -20.90625 C 4.503906 -21.101562 4.90625 -21.210938 5.375 -21.234375 L 9.703125 -21.3125 C 10.253906 -21.332031 10.664062 -21.382812 10.9375 -21.46875 C 11.21875 -21.550781 11.398438 -21.59375 11.484375 -21.59375 C 11.628906 -21.59375 11.703125 -21.53125 11.703125 -21.40625 C 11.703125 -21.25 11.617188 -21.046875 11.453125 -20.796875 C 11.234375 -20.410156 11.039062 -20.144531 10.875 -20 C 10.707031 -19.851562 10.421875 -19.757812 10.015625 -19.71875 L 8.515625 -19.625 L 6.171875 -3.28125 C 6.046875 -2.726562 5.851562 -2.320312 5.59375 -2.0625 L 5.59375 -2.03125 C 5.789062 -1.988281 6.054688 -1.929688 6.390625 -1.859375 C 6.734375 -1.785156 7.039062 -1.75 7.3125 -1.75 C 7.632812 -1.75 7.914062 -1.8125 8.15625 -1.9375 C 8.394531 -2.0625 8.535156 -2.125 8.578125 -2.125 C 8.671875 -2.125 8.71875 -2.0625 8.71875 -1.9375 C 8.71875 -1.726562 8.597656 -1.492188 8.359375 -1.234375 C 7.617188 -0.410156 6.898438 0 6.203125 0 C 5.960938 0 5.582031 -0.0703125 5.0625 -0.21875 C 4.289062 -0.394531 3.757812 -0.484375 3.46875 -0.484375 C 3.082031 -0.484375 2.644531 -0.398438 2.15625 -0.234375 C 1.675781 -0.078125 1.398438 0 1.328125 0 Z M 1.328125 0 "/></g></g></g><g fill="rgb(77.648926%, 67.059326%, 34.899902%)" fill-opacity="1"><g transform="translate(252.219704, 233.045025)"><g><path d="M 6.671875 7.828125 C 5.640625 7.828125 4.738281 7.628906 3.96875 7.234375 C 3.207031 6.835938 2.828125 6.34375 2.828125 5.75 C 2.828125 5.414062 2.941406 5.050781 3.171875 4.65625 C 3.410156 4.257812 3.679688 3.914062 3.984375 3.625 C 4.296875 3.332031 4.546875 3.1875 4.734375 3.1875 C 4.859375 3.1875 4.929688 3.28125 4.953125 3.46875 C 5.316406 4.488281 5.75 5.210938 6.25 5.640625 C 6.75 6.078125 7.367188 6.296875 8.109375 6.296875 C 8.828125 6.296875 9.425781 6.085938 9.90625 5.671875 C 10.382812 5.265625 10.78125 4.609375 11.09375 3.703125 C 11.414062 2.804688 11.703125 1.582031 11.953125 0.03125 L 12.375 -2.484375 C 10.695312 -0.828125 8.9375 0 7.09375 0 C 5.5 0 4.234375 -0.65625 3.296875 -1.96875 C 2.367188 -3.28125 1.90625 -5.175781 1.90625 -7.65625 C 1.90625 -10.375 2.457031 -12.796875 3.5625 -14.921875 C 4.664062 -17.054688 6.070312 -18.707031 7.78125 -19.875 C 9.5 -21.039062 11.207031 -21.625 12.90625 -21.625 C 13.96875 -21.625 14.898438 -21.410156 15.703125 -20.984375 C 16.515625 -20.566406 16.921875 -19.941406 16.921875 -19.109375 C 16.921875 -18.921875 16.867188 -18.648438 16.765625 -18.296875 C 16.671875 -17.953125 16.488281 -17.566406 16.21875 -17.140625 C 16.09375 -16.972656 15.988281 -16.851562 15.90625 -16.78125 C 15.832031 -16.71875 15.734375 -16.6875 15.609375 -16.6875 C 15.484375 -16.6875 15.390625 -16.742188 15.328125 -16.859375 C 15.265625 -16.984375 15.21875 -17.140625 15.1875 -17.328125 C 15.15625 -17.523438 15.128906 -17.664062 15.109375 -17.75 C 14.953125 -18.507812 14.613281 -19.070312 14.09375 -19.4375 C 13.582031 -19.8125 12.867188 -20 11.953125 -20 C 10.296875 -20 8.90625 -19.367188 7.78125 -18.109375 C 6.664062 -16.847656 5.835938 -15.300781 5.296875 -13.46875 C 4.753906 -11.632812 4.484375 -9.859375 4.484375 -8.140625 C 4.484375 -6.171875 4.84375 -4.675781 5.5625 -3.65625 C 6.28125 -2.632812 7.265625 -2.125 8.515625 -2.125 C 9.328125 -2.125 10.125 -2.359375 10.90625 -2.828125 C 11.6875 -3.296875 12.332031 -4.050781 12.84375 -5.09375 L 13.453125 -9.640625 C 13.492188 -10.140625 13.773438 -10.640625 14.296875 -11.140625 C 14.816406 -11.640625 15.304688 -11.890625 15.765625 -11.890625 C 16.003906 -11.890625 16.125 -11.828125 16.125 -11.703125 C 16.125 -11.660156 16.015625 -11.488281 15.796875 -11.1875 C 15.585938 -10.894531 15.441406 -10.398438 15.359375 -9.703125 L 14.40625 -1.875 C 13.875 1.238281 12.945312 3.632812 11.625 5.3125 C 10.300781 6.988281 8.648438 7.828125 6.671875 7.828125 Z M 6.671875 7.828125 "/></g></g></g><g fill="rgb(77.648926%, 67.059326%, 34.899902%)" fill-opacity="1"><g transform="translate(269.512041, 233.045025)"><g><path d="M 13.640625 0.3125 C 13.390625 0.3125 13.265625 0.1875 13.265625 -0.0625 C 13.265625 -0.101562 13.304688 -0.328125 13.390625 -0.734375 C 13.554688 -1.660156 13.640625 -2.328125 13.640625 -2.734375 C 13.640625 -3.179688 13.546875 -3.660156 13.359375 -4.171875 C 13.015625 -5.242188 12.390625 -6.554688 11.484375 -8.109375 L 10.296875 -10.328125 C 9.472656 -11.835938 8.710938 -13.378906 8.015625 -14.953125 L 7.734375 -15.609375 L 7.6875 -15.609375 L 5.75 -3.375 C 5.6875 -2.820312 5.519531 -2.394531 5.25 -2.09375 L 5.25 -2.0625 C 5.800781 -1.875 6.210938 -1.78125 6.484375 -1.78125 C 6.765625 -1.78125 7.019531 -1.835938 7.25 -1.953125 C 7.476562 -2.066406 7.625 -2.125 7.6875 -2.125 C 7.78125 -2.125 7.828125 -2.0625 7.828125 -1.9375 C 7.828125 -1.75 7.695312 -1.523438 7.4375 -1.265625 C 6.65625 -0.421875 6.019531 0 5.53125 0 C 5.34375 0 5.046875 -0.0820312 4.640625 -0.25 C 4.578125 -0.269531 4.425781 -0.316406 4.1875 -0.390625 C 3.957031 -0.472656 3.726562 -0.515625 3.5 -0.515625 C 3.175781 -0.515625 2.847656 -0.425781 2.515625 -0.25 C 2.191406 -0.0820312 2 0 1.9375 0 C 1.832031 0 1.78125 -0.09375 1.78125 -0.28125 C 1.78125 -0.476562 1.847656 -0.703125 1.984375 -0.953125 C 2.117188 -1.203125 2.285156 -1.40625 2.484375 -1.5625 C 2.953125 -1.976562 3.269531 -2.273438 3.4375 -2.453125 C 3.601562 -2.640625 3.734375 -2.867188 3.828125 -3.140625 C 3.921875 -3.421875 4.015625 -3.910156 4.109375 -4.609375 L 6.453125 -19.359375 L 5.46875 -19.421875 C 5.039062 -19.472656 4.609375 -19.5 4.171875 -19.5 C 3.578125 -19.5 3.078125 -19.40625 2.671875 -19.21875 C 2.265625 -19.039062 1.914062 -18.757812 1.625 -18.375 C 1.582031 -18.3125 1.507812 -18.203125 1.40625 -18.046875 C 1.3125 -17.890625 1.222656 -17.8125 1.140625 -17.8125 C 1.035156 -17.8125 0.984375 -17.90625 0.984375 -18.09375 C 0.984375 -18.300781 1.015625 -18.472656 1.078125 -18.609375 C 1.273438 -19.472656 1.710938 -20.140625 2.390625 -20.609375 C 3.066406 -21.078125 3.898438 -21.3125 4.890625 -21.3125 L 5.890625 -21.28125 C 6.429688 -21.25 6.882812 -21.234375 7.25 -21.234375 C 7.613281 -21.234375 8.003906 -21.25 8.421875 -21.28125 L 9.0625 -21.3125 C 8.957031 -20.800781 8.90625 -20.375 8.90625 -20.03125 C 8.90625 -19.164062 9.113281 -18.160156 9.53125 -17.015625 C 9.957031 -15.867188 10.609375 -14.476562 11.484375 -12.84375 L 13.203125 -9.578125 C 13.921875 -8.296875 14.457031 -7.222656 14.8125 -6.359375 L 14.875 -6.359375 L 16.5625 -17.625 C 16.863281 -19.613281 17.304688 -21.253906 17.890625 -22.546875 C 18.472656 -23.835938 19.21875 -24.84375 20.125 -25.5625 C 20.78125 -26.113281 21.46875 -26.515625 22.1875 -26.765625 C 22.914062 -27.023438 23.882812 -27.207031 25.09375 -27.3125 C 25.300781 -27.332031 25.597656 -27.382812 25.984375 -27.46875 C 26.171875 -27.539062 26.296875 -27.578125 26.359375 -27.578125 C 26.460938 -27.578125 26.515625 -27.519531 26.515625 -27.40625 C 26.515625 -27.15625 26.367188 -26.875 26.078125 -26.5625 C 25.796875 -26.257812 25.304688 -26.066406 24.609375 -25.984375 C 24.484375 -25.960938 24.171875 -25.925781 23.671875 -25.875 C 23.171875 -25.820312 22.707031 -25.691406 22.28125 -25.484375 C 21.863281 -25.285156 21.472656 -24.992188 21.109375 -24.609375 C 20.453125 -23.890625 19.925781 -22.988281 19.53125 -21.90625 C 19.144531 -20.820312 18.828125 -19.539062 18.578125 -18.0625 L 16.1875 -3.34375 C 16.125 -2.894531 15.929688 -2.382812 15.609375 -1.8125 C 15.296875 -1.238281 14.945312 -0.738281 14.5625 -0.3125 C 14.1875 0.101562 13.878906 0.3125 13.640625 0.3125 Z M 13.640625 0.3125 "/></g></g></g><g fill="rgb(77.648926%, 67.059326%, 34.899902%)" fill-opacity="1"><g transform="translate(289.630152, 233.045025)"><g><path d="M 4.796875 0.3125 C 3.867188 0.3125 3.078125 0.125 2.421875 -0.25 C 1.765625 -0.632812 1.269531 -1.09375 0.9375 -1.625 C 0.601562 -2.15625 0.414062 -2.660156 0.375 -3.140625 C 0.375 -3.546875 0.484375 -3.960938 0.703125 -4.390625 C 0.929688 -4.816406 1.195312 -5.171875 1.5 -5.453125 C 1.8125 -5.742188 2.050781 -5.890625 2.21875 -5.890625 C 2.3125 -5.890625 2.359375 -5.832031 2.359375 -5.71875 C 2.460938 -4.59375 2.769531 -3.5625 3.28125 -2.625 C 3.800781 -1.695312 4.722656 -1.234375 6.046875 -1.234375 C 7.117188 -1.234375 7.96875 -1.554688 8.59375 -2.203125 C 9.226562 -2.859375 9.546875 -3.773438 9.546875 -4.953125 C 9.546875 -5.640625 9.410156 -6.28125 9.140625 -6.875 C 8.878906 -7.46875 8.441406 -8.132812 7.828125 -8.875 L 4.828125 -12.4375 C 4.492188 -12.875 4.234375 -13.320312 4.046875 -13.78125 C 3.867188 -14.238281 3.78125 -14.796875 3.78125 -15.453125 C 3.78125 -16.515625 4.023438 -17.515625 4.515625 -18.453125 C 5.003906 -19.398438 5.71875 -20.164062 6.65625 -20.75 C 7.601562 -21.332031 8.703125 -21.625 9.953125 -21.625 C 10.972656 -21.625 11.8125 -21.410156 12.46875 -20.984375 C 13.125 -20.566406 13.453125 -19.972656 13.453125 -19.203125 C 13.453125 -18.609375 13.207031 -17.921875 12.71875 -17.140625 C 12.53125 -16.835938 12.328125 -16.6875 12.109375 -16.6875 C 11.941406 -16.6875 11.832031 -16.757812 11.78125 -16.90625 C 11.726562 -17.0625 11.679688 -17.34375 11.640625 -17.75 C 11.578125 -19.394531 10.695312 -20.21875 9 -20.21875 C 7.976562 -20.21875 7.179688 -19.953125 6.609375 -19.421875 C 6.035156 -18.898438 5.75 -18.191406 5.75 -17.296875 C 5.75 -16.390625 6.125 -15.476562 6.875 -14.5625 L 9.828125 -11.15625 C 11.097656 -9.65625 11.734375 -8.085938 11.734375 -6.453125 C 11.734375 -5.265625 11.398438 -4.148438 10.734375 -3.109375 C 10.066406 -2.078125 9.195312 -1.25 8.125 -0.625 C 7.050781 0 5.941406 0.3125 4.796875 0.3125 Z M 4.796875 0.3125 "/></g></g></g></svg>