<svg xmlns="http://www.w3.org/2000/svg" xmlns:xlink="http://www.w3.org/1999/xlink" width="500" zoomAndPan="magnify" viewBox="0 0 375 374.999991" height="500" preserveAspectRatio="xMidYMid meet" version="1.0"><defs><clipPath id="id1"><path d="M 163 234 L 223 234 L 223 278.84375 L 163 278.84375 Z M 163 234 " clip-rule="nonzero"/></clipPath><clipPath id="id2"><path d="M 89.925781 81.59375 L 284.910156 81.59375 L 284.910156 248 L 89.925781 248 Z M 89.925781 81.59375 " clip-rule="nonzero"/></clipPath></defs><g clip-path="url(#id1)"><path fill="rgb(100%, 100%, 100%)" d="M 163.6875 278.835938 C 163.6875 278.835938 170.167969 272.476562 178.585938 269.242188 C 191.496094 264.277344 207.191406 258.820312 199.015625 241.410156 C 205.59375 239.183594 213.414062 238.152344 222.210938 239.902344 C 222.210938 239.902344 195.757812 226.140625 176.5625 256.382812 C 182.027344 241.023438 194.054688 235.921875 194.054688 235.921875 C 158.171875 226.265625 163.6875 278.835938 163.6875 278.835938 " fill-opacity="1" fill-rule="nonzero"/></g><g clip-path="url(#id2)"><path fill="rgb(77.648926%, 67.059326%, 34.899902%)" d="M 187.410156 81.585938 L 89.96875 169.960938 L 121.585938 169.960938 L 121.585938 247.089844 L 161.609375 247.089844 C 163.042969 243.351562 164.984375 239.847656 167.59375 236.949219 C 168.308594 236.152344 169.070312 235.417969 169.863281 234.738281 L 133.925781 234.738281 L 133.925781 157.613281 L 121.960938 157.613281 L 187.410156 98.25 L 252.855469 157.613281 L 240.890625 157.613281 L 240.890625 218.566406 C 240.890625 226.34375 232.988281 231.277344 225.789062 228.355469 C 220.242188 226.109375 217.277344 218.792969 219.976562 213.367188 C 230.550781 192.125 209.402344 177.769531 191.820312 165.0625 C 178.875 155.707031 170.65625 141.882812 170.65625 141.882812 C 170.65625 141.882812 137.414062 229.386719 203.21875 229.117188 C 203.21875 229.117188 184.941406 214.933594 182.535156 186.164062 C 192.949219 219.015625 212.910156 230.609375 228.972656 234.34375 C 241.378906 237.230469 253.234375 227.789062 253.234375 215.046875 L 253.234375 169.960938 L 284.851562 169.960938 L 187.410156 81.585938 " fill-opacity="1" fill-rule="nonzero"/></g></svg>